<mxfile host="app.diagrams.net" modified="2024-04-17T12:33:40.644Z" agent="Mozilla/5.0 (Windows NT 10.0; Win64; x64) AppleWebKit/537.36 (KHTML, like Gecko) Chrome/123.0.0.0 Safari/537.36" etag="VTOvHNHgdGCj7r2c5I3u" version="24.2.5" type="github">
  <diagram id="C5RBs43oDa-KdzZeNtuy" name="Page-1">
    <mxGraphModel dx="1877" dy="1734" grid="1" gridSize="10" guides="1" tooltips="1" connect="1" arrows="1" fold="1" page="1" pageScale="1" pageWidth="827" pageHeight="1169" math="0" shadow="0">
      <root>
        <mxCell id="WIyWlLk6GJQsqaUBKTNV-0" />
        <mxCell id="WIyWlLk6GJQsqaUBKTNV-1" parent="WIyWlLk6GJQsqaUBKTNV-0" />
        <mxCell id="zkfFHV4jXpPFQw0GAbJ--0" value="User" style="swimlane;fontStyle=0;align=center;verticalAlign=top;childLayout=stackLayout;horizontal=1;startSize=26;horizontalStack=0;resizeParent=1;resizeLast=0;collapsible=1;marginBottom=0;rounded=0;shadow=0;strokeWidth=1;" parent="WIyWlLk6GJQsqaUBKTNV-1" vertex="1">
          <mxGeometry x="1500" y="34" width="170" height="294" as="geometry">
            <mxRectangle x="230" y="140" width="160" height="26" as="alternateBounds" />
          </mxGeometry>
        </mxCell>
        <mxCell id="zkfFHV4jXpPFQw0GAbJ--1" value="-id: guid" style="text;align=left;verticalAlign=top;spacingLeft=4;spacingRight=4;overflow=hidden;rotatable=0;points=[[0,0.5],[1,0.5]];portConstraint=eastwest;" parent="zkfFHV4jXpPFQw0GAbJ--0" vertex="1">
          <mxGeometry y="26" width="170" height="26" as="geometry" />
        </mxCell>
        <mxCell id="290E1qMAe_ffJs9mF416-0" value="-birthday: DateTime" style="text;strokeColor=none;fillColor=none;align=left;verticalAlign=top;spacingLeft=4;spacingRight=4;overflow=hidden;rotatable=0;points=[[0,0.5],[1,0.5]];portConstraint=eastwest;whiteSpace=wrap;html=1;" parent="zkfFHV4jXpPFQw0GAbJ--0" vertex="1">
          <mxGeometry y="52" width="170" height="26" as="geometry" />
        </mxCell>
        <mxCell id="290E1qMAe_ffJs9mF416-2" value="-phoneNumber: string" style="text;strokeColor=none;fillColor=none;align=left;verticalAlign=top;spacingLeft=4;spacingRight=4;overflow=hidden;rotatable=0;points=[[0,0.5],[1,0.5]];portConstraint=eastwest;whiteSpace=wrap;html=1;" parent="zkfFHV4jXpPFQw0GAbJ--0" vertex="1">
          <mxGeometry y="78" width="170" height="26" as="geometry" />
        </mxCell>
        <mxCell id="290E1qMAe_ffJs9mF416-1" value="-email: string" style="text;strokeColor=none;fillColor=none;align=left;verticalAlign=top;spacingLeft=4;spacingRight=4;overflow=hidden;rotatable=0;points=[[0,0.5],[1,0.5]];portConstraint=eastwest;whiteSpace=wrap;html=1;" parent="zkfFHV4jXpPFQw0GAbJ--0" vertex="1">
          <mxGeometry y="104" width="170" height="26" as="geometry" />
        </mxCell>
        <mxCell id="zkfFHV4jXpPFQw0GAbJ--2" value="-username: string" style="text;align=left;verticalAlign=top;spacingLeft=4;spacingRight=4;overflow=hidden;rotatable=0;points=[[0,0.5],[1,0.5]];portConstraint=eastwest;rounded=0;shadow=0;html=0;" parent="zkfFHV4jXpPFQw0GAbJ--0" vertex="1">
          <mxGeometry y="130" width="170" height="26" as="geometry" />
        </mxCell>
        <mxCell id="OUiPq4jIBrS2TNY35F44-73" value="-confirmationPassword: string" style="text;align=left;verticalAlign=top;spacingLeft=4;spacingRight=4;overflow=hidden;rotatable=0;points=[[0,0.5],[1,0.5]];portConstraint=eastwest;" parent="zkfFHV4jXpPFQw0GAbJ--0" vertex="1">
          <mxGeometry y="156" width="170" height="26" as="geometry" />
        </mxCell>
        <mxCell id="OUiPq4jIBrS2TNY35F44-74" value="-registrationDate: DateTime" style="text;align=left;verticalAlign=top;spacingLeft=4;spacingRight=4;overflow=hidden;rotatable=0;points=[[0,0.5],[1,0.5]];portConstraint=eastwest;" parent="zkfFHV4jXpPFQw0GAbJ--0" vertex="1">
          <mxGeometry y="182" width="170" height="26" as="geometry" />
        </mxCell>
        <mxCell id="OUiPq4jIBrS2TNY35F44-75" value="-followingCount: int" style="text;align=left;verticalAlign=top;spacingLeft=4;spacingRight=4;overflow=hidden;rotatable=0;points=[[0,0.5],[1,0.5]];portConstraint=eastwest;" parent="zkfFHV4jXpPFQw0GAbJ--0" vertex="1">
          <mxGeometry y="208" width="170" height="26" as="geometry" />
        </mxCell>
        <mxCell id="OUiPq4jIBrS2TNY35F44-76" value="-followersCount: int" style="text;align=left;verticalAlign=top;spacingLeft=4;spacingRight=4;overflow=hidden;rotatable=0;points=[[0,0.5],[1,0.5]];portConstraint=eastwest;" parent="zkfFHV4jXpPFQw0GAbJ--0" vertex="1">
          <mxGeometry y="234" width="170" height="26" as="geometry" />
        </mxCell>
        <mxCell id="OUiPq4jIBrS2TNY35F44-77" value="-userSession: TimeSpan" style="text;align=left;verticalAlign=top;spacingLeft=4;spacingRight=4;overflow=hidden;rotatable=0;points=[[0,0.5],[1,0.5]];portConstraint=eastwest;" parent="zkfFHV4jXpPFQw0GAbJ--0" vertex="1">
          <mxGeometry y="260" width="170" height="26" as="geometry" />
        </mxCell>
        <mxCell id="zkfFHV4jXpPFQw0GAbJ--4" value="" style="line;html=1;strokeWidth=1;align=left;verticalAlign=middle;spacingTop=-1;spacingLeft=3;spacingRight=3;rotatable=0;labelPosition=right;points=[];portConstraint=eastwest;" parent="zkfFHV4jXpPFQw0GAbJ--0" vertex="1">
          <mxGeometry y="286" width="170" height="8" as="geometry" />
        </mxCell>
        <mxCell id="zkfFHV4jXpPFQw0GAbJ--6" value="ExtraInfoService&#xa;" style="swimlane;fontStyle=0;align=center;verticalAlign=top;childLayout=stackLayout;horizontal=1;startSize=26;horizontalStack=0;resizeParent=1;resizeLast=0;collapsible=1;marginBottom=0;rounded=0;shadow=0;strokeWidth=1;" parent="WIyWlLk6GJQsqaUBKTNV-1" vertex="1">
          <mxGeometry x="560" y="882" width="340" height="156" as="geometry">
            <mxRectangle x="130" y="380" width="160" height="26" as="alternateBounds" />
          </mxGeometry>
        </mxCell>
        <mxCell id="zkfFHV4jXpPFQw0GAbJ--7" value="-profileNetworkServiceInfo: ProfileNetworkInfoService" style="text;align=left;verticalAlign=top;spacingLeft=4;spacingRight=4;overflow=hidden;rotatable=0;points=[[0,0.5],[1,0.5]];portConstraint=eastwest;" parent="zkfFHV4jXpPFQw0GAbJ--6" vertex="1">
          <mxGeometry y="26" width="340" height="44" as="geometry" />
        </mxCell>
        <mxCell id="zkfFHV4jXpPFQw0GAbJ--8" value="-statisticsService: StatisticsService" style="text;align=left;verticalAlign=top;spacingLeft=4;spacingRight=4;overflow=hidden;rotatable=0;points=[[0,0.5],[1,0.5]];portConstraint=eastwest;rounded=0;shadow=0;html=0;" parent="zkfFHV4jXpPFQw0GAbJ--6" vertex="1">
          <mxGeometry y="70" width="340" height="26" as="geometry" />
        </mxCell>
        <mxCell id="zkfFHV4jXpPFQw0GAbJ--9" value="" style="line;html=1;strokeWidth=1;align=left;verticalAlign=middle;spacingTop=-1;spacingLeft=3;spacingRight=3;rotatable=0;labelPosition=right;points=[];portConstraint=eastwest;" parent="zkfFHV4jXpPFQw0GAbJ--6" vertex="1">
          <mxGeometry y="96" width="340" height="8" as="geometry" />
        </mxCell>
        <mxCell id="7rRwgbb3iHMXLxLH9fKi-10" value="+GetProfileNetworkInfoService():ProfileNetworkInfoService " style="text;align=left;verticalAlign=top;spacingLeft=4;spacingRight=4;overflow=hidden;rotatable=0;points=[[0,0.5],[1,0.5]];portConstraint=eastwest;rounded=0;shadow=0;html=0;" vertex="1" parent="zkfFHV4jXpPFQw0GAbJ--6">
          <mxGeometry y="104" width="340" height="26" as="geometry" />
        </mxCell>
        <mxCell id="7rRwgbb3iHMXLxLH9fKi-11" value="+ GetStatisticsService():StatisticsService" style="text;align=left;verticalAlign=top;spacingLeft=4;spacingRight=4;overflow=hidden;rotatable=0;points=[[0,0.5],[1,0.5]];portConstraint=eastwest;rounded=0;shadow=0;html=0;" vertex="1" parent="zkfFHV4jXpPFQw0GAbJ--6">
          <mxGeometry y="130" width="340" height="26" as="geometry" />
        </mxCell>
        <mxCell id="zkfFHV4jXpPFQw0GAbJ--13" value="ProfileNetworkInfoRepo" style="swimlane;fontStyle=0;align=center;verticalAlign=top;childLayout=stackLayout;horizontal=1;startSize=26;horizontalStack=0;resizeParent=1;resizeLast=0;collapsible=1;marginBottom=0;rounded=0;shadow=0;strokeWidth=1;" parent="WIyWlLk6GJQsqaUBKTNV-1" vertex="1">
          <mxGeometry x="1380" y="360" width="250" height="221" as="geometry">
            <mxRectangle x="340" y="380" width="170" height="26" as="alternateBounds" />
          </mxGeometry>
        </mxCell>
        <mxCell id="OUiPq4jIBrS2TNY35F44-18" value="&lt;div&gt;&lt;span style=&quot;background-color: initial;&quot;&gt;-filepath: string&lt;/span&gt;&lt;br&gt;&lt;/div&gt;" style="text;strokeColor=none;fillColor=none;align=left;verticalAlign=top;spacingLeft=4;spacingRight=4;overflow=hidden;rotatable=0;points=[[0,0.5],[1,0.5]];portConstraint=eastwest;whiteSpace=wrap;html=1;" parent="zkfFHV4jXpPFQw0GAbJ--13" vertex="1">
          <mxGeometry y="26" width="250" height="26" as="geometry" />
        </mxCell>
        <mxCell id="zkfFHV4jXpPFQw0GAbJ--15" value="" style="line;html=1;strokeWidth=1;align=left;verticalAlign=middle;spacingTop=-1;spacingLeft=3;spacingRight=3;rotatable=0;labelPosition=right;points=[];portConstraint=eastwest;" parent="zkfFHV4jXpPFQw0GAbJ--13" vertex="1">
          <mxGeometry y="52" width="250" height="8" as="geometry" />
        </mxCell>
        <mxCell id="OUiPq4jIBrS2TNY35F44-23" value="&lt;div&gt;+ AddProfileSocialNetwork(profile: UserProfileSocialNetowrk): bool&lt;/div&gt;" style="text;strokeColor=none;fillColor=none;align=left;verticalAlign=top;spacingLeft=4;spacingRight=4;overflow=hidden;rotatable=0;points=[[0,0.5],[1,0.5]];portConstraint=eastwest;whiteSpace=wrap;html=1;" parent="zkfFHV4jXpPFQw0GAbJ--13" vertex="1">
          <mxGeometry y="60" width="250" height="40" as="geometry" />
        </mxCell>
        <mxCell id="OUiPq4jIBrS2TNY35F44-24" value="&lt;div&gt;+ RemoveProfileSocialNetwork(profile: UserProfileSocialNetowrk): bool&lt;/div&gt;" style="text;strokeColor=none;fillColor=none;align=left;verticalAlign=top;spacingLeft=4;spacingRight=4;overflow=hidden;rotatable=0;points=[[0,0.5],[1,0.5]];portConstraint=eastwest;whiteSpace=wrap;html=1;" parent="zkfFHV4jXpPFQw0GAbJ--13" vertex="1">
          <mxGeometry y="100" width="250" height="40" as="geometry" />
        </mxCell>
        <mxCell id="OUiPq4jIBrS2TNY35F44-26" value="&lt;div&gt;+LoadFromXML(): void&lt;/div&gt;" style="text;strokeColor=none;fillColor=none;align=left;verticalAlign=top;spacingLeft=4;spacingRight=4;overflow=hidden;rotatable=0;points=[[0,0.5],[1,0.5]];portConstraint=eastwest;whiteSpace=wrap;html=1;" parent="zkfFHV4jXpPFQw0GAbJ--13" vertex="1">
          <mxGeometry y="140" width="250" height="30" as="geometry" />
        </mxCell>
        <mxCell id="OUiPq4jIBrS2TNY35F44-27" value="+SaveProfileInXML(): void" style="text;strokeColor=none;fillColor=none;align=left;verticalAlign=top;spacingLeft=4;spacingRight=4;overflow=hidden;rotatable=0;points=[[0,0.5],[1,0.5]];portConstraint=eastwest;whiteSpace=wrap;html=1;" parent="zkfFHV4jXpPFQw0GAbJ--13" vertex="1">
          <mxGeometry y="170" width="250" height="30" as="geometry" />
        </mxCell>
        <mxCell id="qV4Y8gzwJdjqhliuo80T-1" style="edgeStyle=orthogonalEdgeStyle;rounded=0;orthogonalLoop=1;jettySize=auto;html=1;exitX=0.5;exitY=1;exitDx=0;exitDy=0;" edge="1" parent="WIyWlLk6GJQsqaUBKTNV-1" source="zkfFHV4jXpPFQw0GAbJ--17">
          <mxGeometry relative="1" as="geometry">
            <mxPoint x="395" y="690" as="targetPoint" />
          </mxGeometry>
        </mxCell>
        <mxCell id="zkfFHV4jXpPFQw0GAbJ--17" value="CasualProfileService" style="swimlane;fontStyle=0;align=center;verticalAlign=top;childLayout=stackLayout;horizontal=1;startSize=26;horizontalStack=0;resizeParent=1;resizeLast=0;collapsible=1;marginBottom=0;rounded=0;shadow=0;strokeWidth=1;" parent="WIyWlLk6GJQsqaUBKTNV-1" vertex="1">
          <mxGeometry x="220" y="328" width="350" height="372" as="geometry">
            <mxRectangle x="550" y="140" width="160" height="26" as="alternateBounds" />
          </mxGeometry>
        </mxCell>
        <mxCell id="3yT8356qW33JT61PNnHo-131" value="-snapshotsService: SnapshotsService" style="text;strokeColor=none;fillColor=none;align=left;verticalAlign=top;spacingLeft=4;spacingRight=4;overflow=hidden;rotatable=0;points=[[0,0.5],[1,0.5]];portConstraint=eastwest;whiteSpace=wrap;html=1;" parent="zkfFHV4jXpPFQw0GAbJ--17" vertex="1">
          <mxGeometry y="26" width="350" height="26" as="geometry" />
        </mxCell>
        <mxCell id="czLum5bH_eBL0qxSt12o-0" value="-profileInfoSettings:ProfileInfoSettings" style="text;strokeColor=none;fillColor=none;align=left;verticalAlign=top;spacingLeft=4;spacingRight=4;overflow=hidden;rotatable=0;points=[[0,0.5],[1,0.5]];portConstraint=eastwest;whiteSpace=wrap;html=1;" parent="zkfFHV4jXpPFQw0GAbJ--17" vertex="1">
          <mxGeometry y="52" width="350" height="26" as="geometry" />
        </mxCell>
        <mxCell id="zkfFHV4jXpPFQw0GAbJ--23" value="" style="line;html=1;strokeWidth=1;align=left;verticalAlign=middle;spacingTop=-1;spacingLeft=3;spacingRight=3;rotatable=0;labelPosition=right;points=[];portConstraint=eastwest;" parent="zkfFHV4jXpPFQw0GAbJ--17" vertex="1">
          <mxGeometry y="78" width="350" height="8" as="geometry" />
        </mxCell>
        <mxCell id="Jgvn7Q0khOcXt6AM1Krj-47" value="+getConnectedUserId():Guid" style="text;strokeColor=none;fillColor=none;align=left;verticalAlign=top;spacingLeft=4;spacingRight=4;overflow=hidden;rotatable=0;points=[[0,0.5],[1,0.5]];portConstraint=eastwest;whiteSpace=wrap;html=1;" parent="zkfFHV4jXpPFQw0GAbJ--17" vertex="1">
          <mxGeometry y="86" width="350" height="26" as="geometry" />
        </mxCell>
        <mxCell id="7Z-h_UDIuQHWzcK5ADaV-15" value="+getProfileInfoSettings():profileInfoSettings" style="text;strokeColor=none;fillColor=none;align=left;verticalAlign=top;spacingLeft=4;spacingRight=4;overflow=hidden;rotatable=0;points=[[0,0.5],[1,0.5]];portConstraint=eastwest;whiteSpace=wrap;html=1;" parent="zkfFHV4jXpPFQw0GAbJ--17" vertex="1">
          <mxGeometry y="112" width="350" height="26" as="geometry" />
        </mxCell>
        <mxCell id="7Z-h_UDIuQHWzcK5ADaV-13" value="+GetConnectedUserPosts():List&amp;lt;MockPhotoPost&amp;gt;" style="text;strokeColor=none;fillColor=none;align=left;verticalAlign=top;spacingLeft=4;spacingRight=4;overflow=hidden;rotatable=0;points=[[0,0.5],[1,0.5]];portConstraint=eastwest;whiteSpace=wrap;html=1;" parent="zkfFHV4jXpPFQw0GAbJ--17" vertex="1">
          <mxGeometry y="138" width="350" height="26" as="geometry" />
        </mxCell>
        <mxCell id="7Z-h_UDIuQHWzcK5ADaV-16" value="+getSnapshotsService():snaphotService" style="text;strokeColor=none;fillColor=none;align=left;verticalAlign=top;spacingLeft=4;spacingRight=4;overflow=hidden;rotatable=0;points=[[0,0.5],[1,0.5]];portConstraint=eastwest;whiteSpace=wrap;html=1;" parent="zkfFHV4jXpPFQw0GAbJ--17" vertex="1">
          <mxGeometry y="164" width="350" height="26" as="geometry" />
        </mxCell>
        <mxCell id="qV4Y8gzwJdjqhliuo80T-0" value="+getConnectedUserPosts():List&amp;lt;MockPost&amp;gt;" style="text;strokeColor=none;fillColor=none;align=left;verticalAlign=top;spacingLeft=4;spacingRight=4;overflow=hidden;rotatable=0;points=[[0,0.5],[1,0.5]];portConstraint=eastwest;whiteSpace=wrap;html=1;" vertex="1" parent="zkfFHV4jXpPFQw0GAbJ--17">
          <mxGeometry y="190" width="350" height="26" as="geometry" />
        </mxCell>
        <mxCell id="zkfFHV4jXpPFQw0GAbJ--26" value="" style="endArrow=open;shadow=0;strokeWidth=1;rounded=0;curved=0;endFill=1;edgeStyle=elbowEdgeStyle;elbow=vertical;exitX=0.554;exitY=-0.021;exitDx=0;exitDy=0;exitPerimeter=0;entryX=-0.021;entryY=0.093;entryDx=0;entryDy=0;entryPerimeter=0;" parent="WIyWlLk6GJQsqaUBKTNV-1" source="zkfFHV4jXpPFQw0GAbJ--17" target="zkfFHV4jXpPFQw0GAbJ--0" edge="1">
          <mxGeometry x="0.5" y="41" relative="1" as="geometry">
            <mxPoint x="380" y="192" as="sourcePoint" />
            <mxPoint x="950" y="100" as="targetPoint" />
            <mxPoint x="-40" y="32" as="offset" />
            <Array as="points">
              <mxPoint x="529" y="280" />
            </Array>
          </mxGeometry>
        </mxCell>
        <mxCell id="zkfFHV4jXpPFQw0GAbJ--27" value="1" style="resizable=0;align=left;verticalAlign=bottom;labelBackgroundColor=none;fontSize=12;" parent="zkfFHV4jXpPFQw0GAbJ--26" connectable="0" vertex="1">
          <mxGeometry x="-1" relative="1" as="geometry">
            <mxPoint y="4" as="offset" />
          </mxGeometry>
        </mxCell>
        <mxCell id="zkfFHV4jXpPFQw0GAbJ--28" value="1" style="resizable=0;align=right;verticalAlign=bottom;labelBackgroundColor=none;fontSize=12;" parent="zkfFHV4jXpPFQw0GAbJ--26" connectable="0" vertex="1">
          <mxGeometry x="1" relative="1" as="geometry">
            <mxPoint x="-7" y="4" as="offset" />
          </mxGeometry>
        </mxCell>
        <mxCell id="QegDPVJf7pusOnz6bvU5-7" value="ProfileInfoSettings" style="swimlane;fontStyle=0;childLayout=stackLayout;horizontal=1;startSize=26;fillColor=none;horizontalStack=0;resizeParent=1;resizeParentMax=0;resizeLast=0;collapsible=1;marginBottom=0;whiteSpace=wrap;html=1;" parent="WIyWlLk6GJQsqaUBKTNV-1" vertex="1">
          <mxGeometry x="-520" y="-134" width="280" height="446" as="geometry" />
        </mxCell>
        <mxCell id="RpgjhCyierjXjDvT_ClI-4" value="-fancierRepo:FancierRepo" style="text;strokeColor=none;fillColor=none;align=left;verticalAlign=top;spacingLeft=4;spacingRight=4;overflow=hidden;rotatable=0;points=[[0,0.5],[1,0.5]];portConstraint=eastwest;whiteSpace=wrap;html=1;" parent="QegDPVJf7pusOnz6bvU5-7" vertex="1">
          <mxGeometry y="26" width="280" height="26" as="geometry" />
        </mxCell>
        <mxCell id="QVfi3se21Ql85yWSjc6v-6" value="-profileId:Guid" style="text;strokeColor=none;fillColor=none;align=left;verticalAlign=top;spacingLeft=4;spacingRight=4;overflow=hidden;rotatable=0;points=[[0,0.5],[1,0.5]];portConstraint=eastwest;whiteSpace=wrap;html=1;" parent="QegDPVJf7pusOnz6bvU5-7" vertex="1">
          <mxGeometry y="52" width="280" height="26" as="geometry" />
        </mxCell>
        <mxCell id="QVfi3se21Ql85yWSjc6v-8" value="" style="line;strokeWidth=1;fillColor=none;align=left;verticalAlign=middle;spacingTop=-1;spacingLeft=3;spacingRight=3;rotatable=0;labelPosition=right;points=[];portConstraint=eastwest;strokeColor=inherit;" parent="QegDPVJf7pusOnz6bvU5-7" vertex="1">
          <mxGeometry y="78" width="280" height="8" as="geometry" />
        </mxCell>
        <mxCell id="RpgjhCyierjXjDvT_ClI-13" value="+addDailyMotto(string newMotto):bool" style="text;strokeColor=none;fillColor=none;align=left;verticalAlign=top;spacingLeft=4;spacingRight=4;overflow=hidden;rotatable=0;points=[[0,0.5],[1,0.5]];portConstraint=eastwest;whiteSpace=wrap;html=1;" parent="QegDPVJf7pusOnz6bvU5-7" vertex="1">
          <mxGeometry y="86" width="280" height="26" as="geometry" />
        </mxCell>
        <mxCell id="RpgjhCyierjXjDvT_ClI-19" value="+deleteDailyMotto():bool" style="text;strokeColor=none;fillColor=none;align=left;verticalAlign=top;spacingLeft=4;spacingRight=4;overflow=hidden;rotatable=0;points=[[0,0.5],[1,0.5]];portConstraint=eastwest;whiteSpace=wrap;html=1;" parent="QegDPVJf7pusOnz6bvU5-7" vertex="1">
          <mxGeometry y="112" width="280" height="32" as="geometry" />
        </mxCell>
        <mxCell id="RpgjhCyierjXjDvT_ClI-20" value="+getHashtag():string" style="text;strokeColor=none;fillColor=none;align=left;verticalAlign=top;spacingLeft=4;spacingRight=4;overflow=hidden;rotatable=0;points=[[0,0.5],[1,0.5]];portConstraint=eastwest;whiteSpace=wrap;html=1;" parent="QegDPVJf7pusOnz6bvU5-7" vertex="1">
          <mxGeometry y="144" width="280" height="20" as="geometry" />
        </mxCell>
        <mxCell id="RpgjhCyierjXjDvT_ClI-24" value="+deleteHashtag():bool" style="text;strokeColor=none;fillColor=none;align=left;verticalAlign=top;spacingLeft=4;spacingRight=4;overflow=hidden;rotatable=0;points=[[0,0.5],[1,0.5]];portConstraint=eastwest;whiteSpace=wrap;html=1;" parent="QegDPVJf7pusOnz6bvU5-7" vertex="1">
          <mxGeometry y="164" width="280" height="42" as="geometry" />
        </mxCell>
        <mxCell id="RpgjhCyierjXjDvT_ClI-23" value="+setHashtag(string newHashtag):bool" style="text;strokeColor=none;fillColor=none;align=left;verticalAlign=top;spacingLeft=4;spacingRight=4;overflow=hidden;rotatable=0;points=[[0,0.5],[1,0.5]];portConstraint=eastwest;whiteSpace=wrap;html=1;" parent="QegDPVJf7pusOnz6bvU5-7" vertex="1">
          <mxGeometry y="206" width="280" height="26" as="geometry" />
        </mxCell>
        <mxCell id="RpgjhCyierjXjDvT_ClI-22" value="+getFrameNumber():int" style="text;strokeColor=none;fillColor=none;align=left;verticalAlign=top;spacingLeft=4;spacingRight=4;overflow=hidden;rotatable=0;points=[[0,0.5],[1,0.5]];portConstraint=eastwest;whiteSpace=wrap;html=1;" parent="QegDPVJf7pusOnz6bvU5-7" vertex="1">
          <mxGeometry y="232" width="280" height="42" as="geometry" />
        </mxCell>
        <mxCell id="RpgjhCyierjXjDvT_ClI-21" value="+deleteFrameNumber():bool" style="text;strokeColor=none;fillColor=none;align=left;verticalAlign=top;spacingLeft=4;spacingRight=4;overflow=hidden;rotatable=0;points=[[0,0.5],[1,0.5]];portConstraint=eastwest;whiteSpace=wrap;html=1;" parent="QegDPVJf7pusOnz6bvU5-7" vertex="1">
          <mxGeometry y="274" width="280" height="42" as="geometry" />
        </mxCell>
        <mxCell id="RpgjhCyierjXjDvT_ClI-12" value="+setFrameNumber(int newFrameNumber)" style="text;strokeColor=none;fillColor=none;align=left;verticalAlign=top;spacingLeft=4;spacingRight=4;overflow=hidden;rotatable=0;points=[[0,0.5],[1,0.5]];portConstraint=eastwest;whiteSpace=wrap;html=1;" parent="QegDPVJf7pusOnz6bvU5-7" vertex="1">
          <mxGeometry y="316" width="280" height="26" as="geometry" />
        </mxCell>
        <mxCell id="RpgjhCyierjXjDvT_ClI-11" value="+getLinks():List&amp;lt;string&amp;gt;" style="text;strokeColor=none;fillColor=none;align=left;verticalAlign=top;spacingLeft=4;spacingRight=4;overflow=hidden;rotatable=0;points=[[0,0.5],[1,0.5]];portConstraint=eastwest;whiteSpace=wrap;html=1;" parent="QegDPVJf7pusOnz6bvU5-7" vertex="1">
          <mxGeometry y="342" width="280" height="26" as="geometry" />
        </mxCell>
        <mxCell id="RpgjhCyierjXjDvT_ClI-5" value="+deleteLink(string linkToDelete):bool" style="text;strokeColor=none;fillColor=none;align=left;verticalAlign=top;spacingLeft=4;spacingRight=4;overflow=hidden;rotatable=0;points=[[0,0.5],[1,0.5]];portConstraint=eastwest;whiteSpace=wrap;html=1;" parent="QegDPVJf7pusOnz6bvU5-7" vertex="1">
          <mxGeometry y="368" width="280" height="26" as="geometry" />
        </mxCell>
        <mxCell id="RpgjhCyierjXjDvT_ClI-7" value="+addLink(string newLink:bool" style="text;strokeColor=none;fillColor=none;align=left;verticalAlign=top;spacingLeft=4;spacingRight=4;overflow=hidden;rotatable=0;points=[[0,0.5],[1,0.5]];portConstraint=eastwest;whiteSpace=wrap;html=1;" parent="QegDPVJf7pusOnz6bvU5-7" vertex="1">
          <mxGeometry y="394" width="280" height="26" as="geometry" />
        </mxCell>
        <mxCell id="RpgjhCyierjXjDvT_ClI-6" value="+getDailyMotto():string" style="text;strokeColor=none;fillColor=none;align=left;verticalAlign=top;spacingLeft=4;spacingRight=4;overflow=hidden;rotatable=0;points=[[0,0.5],[1,0.5]];portConstraint=eastwest;whiteSpace=wrap;html=1;" parent="QegDPVJf7pusOnz6bvU5-7" vertex="1">
          <mxGeometry y="420" width="280" height="26" as="geometry" />
        </mxCell>
        <mxCell id="QegDPVJf7pusOnz6bvU5-22" value="" style="endArrow=open;shadow=0;strokeWidth=1;rounded=0;curved=0;endFill=1;edgeStyle=elbowEdgeStyle;elbow=vertical;exitX=1;exitY=0.324;exitDx=0;exitDy=0;entryX=0.811;entryY=0.006;entryDx=0;entryDy=0;entryPerimeter=0;exitPerimeter=0;" parent="WIyWlLk6GJQsqaUBKTNV-1" target="zkfFHV4jXpPFQw0GAbJ--6" edge="1">
          <mxGeometry x="0.5" y="41" relative="1" as="geometry">
            <mxPoint x="580" y="362.424" as="sourcePoint" />
            <mxPoint x="971" y="181" as="targetPoint" />
            <mxPoint x="-40" y="32" as="offset" />
            <Array as="points">
              <mxPoint x="680" y="560" />
            </Array>
          </mxGeometry>
        </mxCell>
        <mxCell id="QegDPVJf7pusOnz6bvU5-23" value="1" style="resizable=0;align=left;verticalAlign=bottom;labelBackgroundColor=none;fontSize=12;" parent="QegDPVJf7pusOnz6bvU5-22" connectable="0" vertex="1">
          <mxGeometry x="-1" relative="1" as="geometry">
            <mxPoint y="4" as="offset" />
          </mxGeometry>
        </mxCell>
        <mxCell id="QegDPVJf7pusOnz6bvU5-24" value="1" style="resizable=0;align=right;verticalAlign=bottom;labelBackgroundColor=none;fontSize=12;" parent="QegDPVJf7pusOnz6bvU5-22" connectable="0" vertex="1">
          <mxGeometry x="1" relative="1" as="geometry">
            <mxPoint x="-7" y="4" as="offset" />
          </mxGeometry>
        </mxCell>
        <mxCell id="QegDPVJf7pusOnz6bvU5-45" value="StatisticsService&lt;div&gt;&lt;br&gt;&lt;/div&gt;" style="swimlane;fontStyle=1;align=center;verticalAlign=top;childLayout=stackLayout;horizontal=1;startSize=26;horizontalStack=0;resizeParent=1;resizeParentMax=0;resizeLast=0;collapsible=1;marginBottom=0;whiteSpace=wrap;html=1;" parent="WIyWlLk6GJQsqaUBKTNV-1" vertex="1">
          <mxGeometry x="710" y="1270" width="230" height="292" as="geometry" />
        </mxCell>
        <mxCell id="QVfi3se21Ql85yWSjc6v-13" value="-timeSpentOnApp: int" style="text;strokeColor=none;fillColor=none;align=left;verticalAlign=top;spacingLeft=4;spacingRight=4;overflow=hidden;rotatable=0;points=[[0,0.5],[1,0.5]];portConstraint=eastwest;whiteSpace=wrap;html=1;" parent="QegDPVJf7pusOnz6bvU5-45" vertex="1">
          <mxGeometry y="26" width="230" height="26" as="geometry" />
        </mxCell>
        <mxCell id="QVfi3se21Ql85yWSjc6v-15" value="&lt;div style=&quot;&quot;&gt;-friends: Dictionray&amp;lt;User,int&amp;gt;&lt;/div&gt;&lt;div&gt;-mainWindow: Window&lt;/div&gt;&lt;div&gt;-filePath: string&lt;/div&gt;" style="text;strokeColor=none;fillColor=none;align=left;verticalAlign=top;spacingLeft=4;spacingRight=4;overflow=hidden;rotatable=0;points=[[0,0.5],[1,0.5]];portConstraint=eastwest;whiteSpace=wrap;html=1;" parent="QegDPVJf7pusOnz6bvU5-45" vertex="1">
          <mxGeometry y="52" width="230" height="68" as="geometry" />
        </mxCell>
        <mxCell id="QegDPVJf7pusOnz6bvU5-47" value="" style="line;strokeWidth=1;fillColor=none;align=left;verticalAlign=middle;spacingTop=-1;spacingLeft=3;spacingRight=3;rotatable=0;labelPosition=right;points=[];portConstraint=eastwest;strokeColor=inherit;" parent="QegDPVJf7pusOnz6bvU5-45" vertex="1">
          <mxGeometry y="120" width="230" height="8" as="geometry" />
        </mxCell>
        <mxCell id="QVfi3se21Ql85yWSjc6v-16" value="+generateDefaultFilePath(): string&lt;div&gt;+createXML(filePath: string): void&lt;/div&gt;&lt;div&gt;+Load(filepath: string): void&lt;/div&gt;&lt;div&gt;+SaveStreaksToXML(): void&lt;/div&gt;&lt;div&gt;+GetFriendNames(): List&amp;lt;string&amp;gt;&lt;/div&gt;&lt;div&gt;+GetUserStreaks(): List&amp;lt;int&amp;gt;&lt;/div&gt;&lt;div&gt;+getTextBlock(block: TextBlock): block&lt;/div&gt;&lt;div&gt;+seeAverageTimeSpent(): int&lt;/div&gt;" style="text;strokeColor=none;fillColor=none;align=left;verticalAlign=top;spacingLeft=4;spacingRight=4;overflow=hidden;rotatable=0;points=[[0,0.5],[1,0.5]];portConstraint=eastwest;whiteSpace=wrap;html=1;" parent="QegDPVJf7pusOnz6bvU5-45" vertex="1">
          <mxGeometry y="128" width="230" height="164" as="geometry" />
        </mxCell>
        <mxCell id="QegDPVJf7pusOnz6bvU5-77" value="BlockedAccount" style="swimlane;fontStyle=1;align=center;verticalAlign=top;childLayout=stackLayout;horizontal=1;startSize=26;horizontalStack=0;resizeParent=1;resizeParentMax=0;resizeLast=0;collapsible=1;marginBottom=0;whiteSpace=wrap;html=1;" parent="WIyWlLk6GJQsqaUBKTNV-1" vertex="1">
          <mxGeometry x="1890" y="240" width="300" height="182" as="geometry" />
        </mxCell>
        <mxCell id="QegDPVJf7pusOnz6bvU5-78" value="-user: User" style="text;strokeColor=none;fillColor=none;align=left;verticalAlign=top;spacingLeft=4;spacingRight=4;overflow=hidden;rotatable=0;points=[[0,0.5],[1,0.5]];portConstraint=eastwest;whiteSpace=wrap;html=1;" parent="QegDPVJf7pusOnz6bvU5-77" vertex="1">
          <mxGeometry y="26" width="300" height="26" as="geometry" />
        </mxCell>
        <mxCell id="QegDPVJf7pusOnz6bvU5-109" value="-blockDate: DateTime" style="text;strokeColor=none;fillColor=none;align=left;verticalAlign=top;spacingLeft=4;spacingRight=4;overflow=hidden;rotatable=0;points=[[0,0.5],[1,0.5]];portConstraint=eastwest;whiteSpace=wrap;html=1;" parent="QegDPVJf7pusOnz6bvU5-77" vertex="1">
          <mxGeometry y="52" width="300" height="26" as="geometry" />
        </mxCell>
        <mxCell id="QegDPVJf7pusOnz6bvU5-79" value="" style="line;strokeWidth=1;fillColor=none;align=left;verticalAlign=middle;spacingTop=-1;spacingLeft=3;spacingRight=3;rotatable=0;labelPosition=right;points=[];portConstraint=eastwest;strokeColor=inherit;" parent="QegDPVJf7pusOnz6bvU5-77" vertex="1">
          <mxGeometry y="78" width="300" height="8" as="geometry" />
        </mxCell>
        <mxCell id="QegDPVJf7pusOnz6bvU5-80" value="+compareTo(accountToCompareTo: User): int" style="text;strokeColor=none;fillColor=none;align=left;verticalAlign=top;spacingLeft=4;spacingRight=4;overflow=hidden;rotatable=0;points=[[0,0.5],[1,0.5]];portConstraint=eastwest;whiteSpace=wrap;html=1;" parent="QegDPVJf7pusOnz6bvU5-77" vertex="1">
          <mxGeometry y="86" width="300" height="48" as="geometry" />
        </mxCell>
        <mxCell id="OUiPq4jIBrS2TNY35F44-0" value="+dateToString(): string" style="text;strokeColor=none;fillColor=none;align=left;verticalAlign=top;spacingLeft=4;spacingRight=4;overflow=hidden;rotatable=0;points=[[0,0.5],[1,0.5]];portConstraint=eastwest;whiteSpace=wrap;html=1;" parent="QegDPVJf7pusOnz6bvU5-77" vertex="1">
          <mxGeometry y="134" width="300" height="48" as="geometry" />
        </mxCell>
        <mxCell id="QegDPVJf7pusOnz6bvU5-81" value="CloseFriend" style="swimlane;fontStyle=1;align=center;verticalAlign=top;childLayout=stackLayout;horizontal=1;startSize=26;horizontalStack=0;resizeParent=1;resizeParentMax=0;resizeLast=0;collapsible=1;marginBottom=0;whiteSpace=wrap;html=1;" parent="WIyWlLk6GJQsqaUBKTNV-1" vertex="1">
          <mxGeometry x="1890" y="490" width="290" height="140" as="geometry" />
        </mxCell>
        <mxCell id="QegDPVJf7pusOnz6bvU5-82" value="-closeFriend: User" style="text;strokeColor=none;fillColor=none;align=left;verticalAlign=top;spacingLeft=4;spacingRight=4;overflow=hidden;rotatable=0;points=[[0,0.5],[1,0.5]];portConstraint=eastwest;whiteSpace=wrap;html=1;" parent="QegDPVJf7pusOnz6bvU5-81" vertex="1">
          <mxGeometry y="26" width="290" height="26" as="geometry" />
        </mxCell>
        <mxCell id="3yT8356qW33JT61PNnHo-0" value="-closeFriendDate: DateTime" style="text;strokeColor=none;fillColor=none;align=left;verticalAlign=top;spacingLeft=4;spacingRight=4;overflow=hidden;rotatable=0;points=[[0,0.5],[1,0.5]];portConstraint=eastwest;whiteSpace=wrap;html=1;" parent="QegDPVJf7pusOnz6bvU5-81" vertex="1">
          <mxGeometry y="52" width="290" height="26" as="geometry" />
        </mxCell>
        <mxCell id="QegDPVJf7pusOnz6bvU5-83" value="" style="line;strokeWidth=1;fillColor=none;align=left;verticalAlign=middle;spacingTop=-1;spacingLeft=3;spacingRight=3;rotatable=0;labelPosition=right;points=[];portConstraint=eastwest;strokeColor=inherit;" parent="QegDPVJf7pusOnz6bvU5-81" vertex="1">
          <mxGeometry y="78" width="290" height="8" as="geometry" />
        </mxCell>
        <mxCell id="QegDPVJf7pusOnz6bvU5-84" value="+compareTo( accountToCompareTo: User): int" style="text;strokeColor=none;fillColor=none;align=left;verticalAlign=top;spacingLeft=4;spacingRight=4;overflow=hidden;rotatable=0;points=[[0,0.5],[1,0.5]];portConstraint=eastwest;whiteSpace=wrap;html=1;" parent="QegDPVJf7pusOnz6bvU5-81" vertex="1">
          <mxGeometry y="86" width="290" height="54" as="geometry" />
        </mxCell>
        <mxCell id="QegDPVJf7pusOnz6bvU5-85" value="Group" style="swimlane;fontStyle=1;align=center;verticalAlign=top;childLayout=stackLayout;horizontal=1;startSize=26;horizontalStack=0;resizeParent=1;resizeParentMax=0;resizeLast=0;collapsible=1;marginBottom=0;whiteSpace=wrap;html=1;" parent="WIyWlLk6GJQsqaUBKTNV-1" vertex="1">
          <mxGeometry x="1860" y="730" width="290" height="160" as="geometry" />
        </mxCell>
        <mxCell id="QegDPVJf7pusOnz6bvU5-86" value="-groupId: guid" style="text;strokeColor=none;fillColor=none;align=left;verticalAlign=top;spacingLeft=4;spacingRight=4;overflow=hidden;rotatable=0;points=[[0,0.5],[1,0.5]];portConstraint=eastwest;whiteSpace=wrap;html=1;" parent="QegDPVJf7pusOnz6bvU5-85" vertex="1">
          <mxGeometry y="26" width="290" height="26" as="geometry" />
        </mxCell>
        <mxCell id="QegDPVJf7pusOnz6bvU5-122" value="-groupName: string" style="text;strokeColor=none;fillColor=none;align=left;verticalAlign=top;spacingLeft=4;spacingRight=4;overflow=hidden;rotatable=0;points=[[0,0.5],[1,0.5]];portConstraint=eastwest;whiteSpace=wrap;html=1;" parent="QegDPVJf7pusOnz6bvU5-85" vertex="1">
          <mxGeometry y="52" width="290" height="26" as="geometry" />
        </mxCell>
        <mxCell id="QegDPVJf7pusOnz6bvU5-123" value="-members: List&amp;lt;User&amp;gt;" style="text;strokeColor=none;fillColor=none;align=left;verticalAlign=top;spacingLeft=4;spacingRight=4;overflow=hidden;rotatable=0;points=[[0,0.5],[1,0.5]];portConstraint=eastwest;whiteSpace=wrap;html=1;" parent="QegDPVJf7pusOnz6bvU5-85" vertex="1">
          <mxGeometry y="78" width="290" height="26" as="geometry" />
        </mxCell>
        <mxCell id="QegDPVJf7pusOnz6bvU5-87" value="" style="line;strokeWidth=1;fillColor=none;align=left;verticalAlign=middle;spacingTop=-1;spacingLeft=3;spacingRight=3;rotatable=0;labelPosition=right;points=[];portConstraint=eastwest;strokeColor=inherit;" parent="QegDPVJf7pusOnz6bvU5-85" vertex="1">
          <mxGeometry y="104" width="290" height="8" as="geometry" />
        </mxCell>
        <mxCell id="QegDPVJf7pusOnz6bvU5-88" value="+compareTo( groupToCompareTo: Group): int" style="text;strokeColor=none;fillColor=none;align=left;verticalAlign=top;spacingLeft=4;spacingRight=4;overflow=hidden;rotatable=0;points=[[0,0.5],[1,0.5]];portConstraint=eastwest;whiteSpace=wrap;html=1;" parent="QegDPVJf7pusOnz6bvU5-85" vertex="1">
          <mxGeometry y="112" width="290" height="48" as="geometry" />
        </mxCell>
        <mxCell id="QegDPVJf7pusOnz6bvU5-93" value="" style="endArrow=open;shadow=0;strokeWidth=1;rounded=0;curved=0;endFill=1;edgeStyle=elbowEdgeStyle;elbow=vertical;exitX=0.471;exitY=-0.025;exitDx=0;exitDy=0;entryX=0.002;entryY=0.174;entryDx=0;entryDy=0;entryPerimeter=0;exitPerimeter=0;" parent="WIyWlLk6GJQsqaUBKTNV-1" source="OUiPq4jIBrS2TNY35F44-1" target="QegDPVJf7pusOnz6bvU5-77" edge="1">
          <mxGeometry x="0.5" y="41" relative="1" as="geometry">
            <mxPoint x="1695" y="422.174" as="sourcePoint" />
            <mxPoint x="1283" y="299" as="targetPoint" />
            <mxPoint x="-40" y="32" as="offset" />
            <Array as="points">
              <mxPoint x="1870" y="268" />
            </Array>
          </mxGeometry>
        </mxCell>
        <mxCell id="QegDPVJf7pusOnz6bvU5-94" value="1" style="resizable=0;align=left;verticalAlign=bottom;labelBackgroundColor=none;fontSize=12;" parent="QegDPVJf7pusOnz6bvU5-93" connectable="0" vertex="1">
          <mxGeometry x="-1" relative="1" as="geometry">
            <mxPoint y="4" as="offset" />
          </mxGeometry>
        </mxCell>
        <mxCell id="QegDPVJf7pusOnz6bvU5-95" value="0....*" style="resizable=0;align=right;verticalAlign=bottom;labelBackgroundColor=none;fontSize=12;" parent="QegDPVJf7pusOnz6bvU5-93" connectable="0" vertex="1">
          <mxGeometry x="1" relative="1" as="geometry">
            <mxPoint x="-7" y="4" as="offset" />
          </mxGeometry>
        </mxCell>
        <mxCell id="QegDPVJf7pusOnz6bvU5-106" value="" style="endArrow=open;shadow=0;strokeWidth=1;rounded=0;curved=0;endFill=1;edgeStyle=elbowEdgeStyle;elbow=vertical;entryX=0;entryY=0.5;entryDx=0;entryDy=0;" parent="WIyWlLk6GJQsqaUBKTNV-1" source="zkfFHV4jXpPFQw0GAbJ--0" edge="1">
          <mxGeometry x="0.5" y="41" relative="1" as="geometry">
            <mxPoint x="1240" y="130" as="sourcePoint" />
            <mxPoint x="1890" y="305.0000000000002" as="targetPoint" />
            <mxPoint x="-40" y="32" as="offset" />
            <Array as="points">
              <mxPoint x="1720" y="300" />
            </Array>
          </mxGeometry>
        </mxCell>
        <mxCell id="QegDPVJf7pusOnz6bvU5-107" value="1" style="resizable=0;align=left;verticalAlign=bottom;labelBackgroundColor=none;fontSize=12;" parent="QegDPVJf7pusOnz6bvU5-106" connectable="0" vertex="1">
          <mxGeometry x="-1" relative="1" as="geometry">
            <mxPoint y="4" as="offset" />
          </mxGeometry>
        </mxCell>
        <mxCell id="QegDPVJf7pusOnz6bvU5-108" value="1" style="resizable=0;align=right;verticalAlign=bottom;labelBackgroundColor=none;fontSize=12;" parent="QegDPVJf7pusOnz6bvU5-106" connectable="0" vertex="1">
          <mxGeometry x="1" relative="1" as="geometry">
            <mxPoint x="-7" y="4" as="offset" />
          </mxGeometry>
        </mxCell>
        <mxCell id="QegDPVJf7pusOnz6bvU5-114" value="«interface»&lt;br&gt;&lt;b&gt;IComparable&lt;/b&gt;" style="html=1;whiteSpace=wrap;" parent="WIyWlLk6GJQsqaUBKTNV-1" vertex="1">
          <mxGeometry x="2371" y="585.5" width="110" height="50" as="geometry" />
        </mxCell>
        <mxCell id="QegDPVJf7pusOnz6bvU5-117" value="Use" style="endArrow=open;endSize=12;dashed=1;html=1;rounded=0;exitX=1;exitY=0.5;exitDx=0;exitDy=0;entryX=0;entryY=0;entryDx=0;entryDy=0;" parent="WIyWlLk6GJQsqaUBKTNV-1" source="QegDPVJf7pusOnz6bvU5-109" target="QegDPVJf7pusOnz6bvU5-114" edge="1">
          <mxGeometry width="160" relative="1" as="geometry">
            <mxPoint x="1550" y="400" as="sourcePoint" />
            <mxPoint x="1700" y="360" as="targetPoint" />
          </mxGeometry>
        </mxCell>
        <mxCell id="QegDPVJf7pusOnz6bvU5-119" value="Use" style="endArrow=open;endSize=12;dashed=1;html=1;rounded=0;exitX=1;exitY=0.5;exitDx=0;exitDy=0;entryX=0;entryY=0.25;entryDx=0;entryDy=0;" parent="WIyWlLk6GJQsqaUBKTNV-1" source="QegDPVJf7pusOnz6bvU5-84" target="QegDPVJf7pusOnz6bvU5-114" edge="1">
          <mxGeometry width="160" relative="1" as="geometry">
            <mxPoint x="1650" y="553" as="sourcePoint" />
            <mxPoint x="1750" y="500" as="targetPoint" />
          </mxGeometry>
        </mxCell>
        <mxCell id="QegDPVJf7pusOnz6bvU5-121" value="Use" style="endArrow=open;endSize=12;dashed=1;html=1;rounded=0;exitX=1;exitY=0.5;exitDx=0;exitDy=0;entryX=0;entryY=0.5;entryDx=0;entryDy=0;" parent="WIyWlLk6GJQsqaUBKTNV-1" source="QegDPVJf7pusOnz6bvU5-88" target="QegDPVJf7pusOnz6bvU5-114" edge="1">
          <mxGeometry width="160" relative="1" as="geometry">
            <mxPoint x="1650" y="401" as="sourcePoint" />
            <mxPoint x="1740" y="388" as="targetPoint" />
          </mxGeometry>
        </mxCell>
        <mxCell id="3yT8356qW33JT61PNnHo-1" value="«interface»&lt;br&gt;&lt;b&gt;FuncTToInt&lt;/b&gt;&lt;div&gt;+Invoke(argument1: T, argument2: T) :int&lt;/div&gt;" style="html=1;whiteSpace=wrap;" parent="WIyWlLk6GJQsqaUBKTNV-1" vertex="1">
          <mxGeometry x="1400" y="1050" width="220" height="50" as="geometry" />
        </mxCell>
        <mxCell id="3yT8356qW33JT61PNnHo-3" value="ProfileNetworkInfoService" style="swimlane;fontStyle=0;align=center;verticalAlign=top;childLayout=stackLayout;horizontal=1;startSize=26;horizontalStack=0;resizeParent=1;resizeLast=0;collapsible=1;marginBottom=0;rounded=0;shadow=0;strokeWidth=1;" parent="WIyWlLk6GJQsqaUBKTNV-1" vertex="1">
          <mxGeometry x="970" y="368" width="390" height="1970" as="geometry">
            <mxRectangle x="340" y="380" width="170" height="26" as="alternateBounds" />
          </mxGeometry>
        </mxCell>
        <mxCell id="3yT8356qW33JT61PNnHo-4" value="-profileNetworkRepo: ProfileNetworkInfoRepo" style="text;align=left;verticalAlign=top;spacingLeft=4;spacingRight=4;overflow=hidden;rotatable=0;points=[[0,0.5],[1,0.5]];portConstraint=eastwest;" parent="3yT8356qW33JT61PNnHo-3" vertex="1">
          <mxGeometry y="26" width="390" height="26" as="geometry" />
        </mxCell>
        <mxCell id="3yT8356qW33JT61PNnHo-33" value="&lt;div&gt;-groupsRepository: GroupsRepository&lt;/div&gt;" style="text;strokeColor=none;fillColor=none;align=left;verticalAlign=top;spacingLeft=4;spacingRight=4;overflow=hidden;rotatable=0;points=[[0,0.5],[1,0.5]];portConstraint=eastwest;whiteSpace=wrap;html=1;" parent="3yT8356qW33JT61PNnHo-3" vertex="1">
          <mxGeometry y="52" width="390" height="42" as="geometry" />
        </mxCell>
        <mxCell id="3yT8356qW33JT61PNnHo-34" value="-usersRepository: UsersRepository" style="text;strokeColor=none;fillColor=none;align=left;verticalAlign=top;spacingLeft=4;spacingRight=4;overflow=hidden;rotatable=0;points=[[0,0.5],[1,0.5]];portConstraint=eastwest;whiteSpace=wrap;html=1;" parent="3yT8356qW33JT61PNnHo-3" vertex="1">
          <mxGeometry y="94" width="390" height="50" as="geometry" />
        </mxCell>
        <mxCell id="3yT8356qW33JT61PNnHo-35" value="-currentConnectedUser: User" style="text;strokeColor=none;fillColor=none;align=left;verticalAlign=top;spacingLeft=4;spacingRight=4;overflow=hidden;rotatable=0;points=[[0,0.5],[1,0.5]];portConstraint=eastwest;whiteSpace=wrap;html=1;" parent="3yT8356qW33JT61PNnHo-3" vertex="1">
          <mxGeometry y="144" width="390" height="40" as="geometry" />
        </mxCell>
        <mxCell id="3yT8356qW33JT61PNnHo-36" value="&amp;nbsp; - compareLikedPostbyDate: Func&amp;lt;LikedPost, LikedPost, int&amp;gt;" style="text;strokeColor=none;fillColor=none;align=left;verticalAlign=top;spacingLeft=4;spacingRight=4;overflow=hidden;rotatable=0;points=[[0,0.5],[1,0.5]];portConstraint=eastwest;whiteSpace=wrap;html=1;" parent="3yT8356qW33JT61PNnHo-3" vertex="1">
          <mxGeometry y="184" width="390" height="46" as="geometry" />
        </mxCell>
        <mxCell id="3yT8356qW33JT61PNnHo-8" value="" style="line;html=1;strokeWidth=1;align=left;verticalAlign=middle;spacingTop=-1;spacingLeft=3;spacingRight=3;rotatable=0;labelPosition=right;points=[];portConstraint=eastwest;" parent="3yT8356qW33JT61PNnHo-3" vertex="1">
          <mxGeometry y="230" width="390" height="8" as="geometry" />
        </mxCell>
        <mxCell id="3yT8356qW33JT61PNnHo-37" value="+CheckIfProfileExists(profileToCheck: UserProfileSocialNetworkInfo): bool" style="text;strokeColor=none;fillColor=none;align=left;verticalAlign=top;spacingLeft=4;spacingRight=4;overflow=hidden;rotatable=0;points=[[0,0.5],[1,0.5]];portConstraint=eastwest;whiteSpace=wrap;html=1;" parent="3yT8356qW33JT61PNnHo-3" vertex="1">
          <mxGeometry y="238" width="390" height="40" as="geometry" />
        </mxCell>
        <mxCell id="3yT8356qW33JT61PNnHo-39" value="+GetProfileSocialNetworkInfoCurrentUser(currentUser: User):&amp;nbsp;UserProfileSocialNetworkInfo" style="text;strokeColor=none;fillColor=none;align=left;verticalAlign=top;spacingLeft=4;spacingRight=4;overflow=hidden;rotatable=0;points=[[0,0.5],[1,0.5]];portConstraint=eastwest;whiteSpace=wrap;html=1;" parent="3yT8356qW33JT61PNnHo-3" vertex="1">
          <mxGeometry y="278" width="390" height="40" as="geometry" />
        </mxCell>
        <mxCell id="3yT8356qW33JT61PNnHo-38" value="+&amp;nbsp;RemoveProfileSocialNetworkInfo(profile: UserProfileSocialNetworkInfo): bool" style="text;strokeColor=none;fillColor=none;align=left;verticalAlign=top;spacingLeft=4;spacingRight=4;overflow=hidden;rotatable=0;points=[[0,0.5],[1,0.5]];portConstraint=eastwest;whiteSpace=wrap;html=1;" parent="3yT8356qW33JT61PNnHo-3" vertex="1">
          <mxGeometry y="318" width="390" height="50" as="geometry" />
        </mxCell>
        <mxCell id="OUiPq4jIBrS2TNY35F44-29" value="+&amp;nbsp;AddGroupToCurrentUser(profile: UserProfileSocialNetworkInfo): bool" style="text;strokeColor=none;fillColor=none;align=left;verticalAlign=top;spacingLeft=4;spacingRight=4;overflow=hidden;rotatable=0;points=[[0,0.5],[1,0.5]];portConstraint=eastwest;whiteSpace=wrap;html=1;" parent="3yT8356qW33JT61PNnHo-3" vertex="1">
          <mxGeometry y="368" width="390" height="50" as="geometry" />
        </mxCell>
        <mxCell id="OUiPq4jIBrS2TNY35F44-30" value="+&amp;nbsp;AddGroupToCurrentUser(profile: UserProfileSocialNetworkInfo, group: Group): bool" style="text;strokeColor=none;fillColor=none;align=left;verticalAlign=top;spacingLeft=4;spacingRight=4;overflow=hidden;rotatable=0;points=[[0,0.5],[1,0.5]];portConstraint=eastwest;whiteSpace=wrap;html=1;" parent="3yT8356qW33JT61PNnHo-3" vertex="1">
          <mxGeometry y="418" width="390" height="50" as="geometry" />
        </mxCell>
        <mxCell id="OUiPq4jIBrS2TNY35F44-32" value="+&amp;nbsp;RemoveGroupFromCurrentUser(profile: UserProfileSocialNetworkInfo, group: Group): bool" style="text;strokeColor=none;fillColor=none;align=left;verticalAlign=top;spacingLeft=4;spacingRight=4;overflow=hidden;rotatable=0;points=[[0,0.5],[1,0.5]];portConstraint=eastwest;whiteSpace=wrap;html=1;" parent="3yT8356qW33JT61PNnHo-3" vertex="1">
          <mxGeometry y="468" width="390" height="50" as="geometry" />
        </mxCell>
        <mxCell id="OUiPq4jIBrS2TNY35F44-31" value="+&amp;nbsp;AddCloseFriendToCurrentUser(profile: UserProfileSocialNetworkInfo, closeFriend: CloseFriendProfile): bool" style="text;strokeColor=none;fillColor=none;align=left;verticalAlign=top;spacingLeft=4;spacingRight=4;overflow=hidden;rotatable=0;points=[[0,0.5],[1,0.5]];portConstraint=eastwest;whiteSpace=wrap;html=1;" parent="3yT8356qW33JT61PNnHo-3" vertex="1">
          <mxGeometry y="518" width="390" height="50" as="geometry" />
        </mxCell>
        <mxCell id="OUiPq4jIBrS2TNY35F44-28" value="+&amp;nbsp;RemoveCloseFriendFromCurrentUser(profile: UserProfileSocialNetworkInfo, closeFriend CloseFriendProfile): bool" style="text;strokeColor=none;fillColor=none;align=left;verticalAlign=top;spacingLeft=4;spacingRight=4;overflow=hidden;rotatable=0;points=[[0,0.5],[1,0.5]];portConstraint=eastwest;whiteSpace=wrap;html=1;" parent="3yT8356qW33JT61PNnHo-3" vertex="1">
          <mxGeometry y="568" width="390" height="50" as="geometry" />
        </mxCell>
        <mxCell id="OUiPq4jIBrS2TNY35F44-33" value="+&amp;nbsp;AddBlockedProfileToCurrentUser(profile: UserProfileSocialNetworkInfo, blockedProfile: BlockedProfile): bool" style="text;strokeColor=none;fillColor=none;align=left;verticalAlign=top;spacingLeft=4;spacingRight=4;overflow=hidden;rotatable=0;points=[[0,0.5],[1,0.5]];portConstraint=eastwest;whiteSpace=wrap;html=1;" parent="3yT8356qW33JT61PNnHo-3" vertex="1">
          <mxGeometry y="618" width="390" height="50" as="geometry" />
        </mxCell>
        <mxCell id="OUiPq4jIBrS2TNY35F44-34" value="+&amp;nbsp;RemoveBlockedProfileFromCurrentUser(profile: UserProfileSocialNetworkInfo, blockedProfile: BlockedProfile): bool" style="text;strokeColor=none;fillColor=none;align=left;verticalAlign=top;spacingLeft=4;spacingRight=4;overflow=hidden;rotatable=0;points=[[0,0.5],[1,0.5]];portConstraint=eastwest;whiteSpace=wrap;html=1;" parent="3yT8356qW33JT61PNnHo-3" vertex="1">
          <mxGeometry y="668" width="390" height="50" as="geometry" />
        </mxCell>
        <mxCell id="OUiPq4jIBrS2TNY35F44-36" value="+&amp;nbsp;AddRestrictedPostsAudienceUserToCurrentUser(profile: UserProfileSocialNetworkInfo, user: User): bool" style="text;strokeColor=none;fillColor=none;align=left;verticalAlign=top;spacingLeft=4;spacingRight=4;overflow=hidden;rotatable=0;points=[[0,0.5],[1,0.5]];portConstraint=eastwest;whiteSpace=wrap;html=1;" parent="3yT8356qW33JT61PNnHo-3" vertex="1">
          <mxGeometry y="718" width="390" height="52" as="geometry" />
        </mxCell>
        <mxCell id="OUiPq4jIBrS2TNY35F44-38" value="+&amp;nbsp;RemoveRestrictedPostsAudienceUserFromCurrentUser(profile: UserProfileSocialNetworkInfo, user: User): bool" style="text;strokeColor=none;fillColor=none;align=left;verticalAlign=top;spacingLeft=4;spacingRight=4;overflow=hidden;rotatable=0;points=[[0,0.5],[1,0.5]];portConstraint=eastwest;whiteSpace=wrap;html=1;" parent="3yT8356qW33JT61PNnHo-3" vertex="1">
          <mxGeometry y="770" width="390" height="52" as="geometry" />
        </mxCell>
        <mxCell id="OUiPq4jIBrS2TNY35F44-59" value="+&amp;nbsp;AddRestrictedStoriesAudienceUserToCurrentUser(profile: UserProfileSocialNetworkInfo, user: User): bool" style="text;strokeColor=none;fillColor=none;align=left;verticalAlign=top;spacingLeft=4;spacingRight=4;overflow=hidden;rotatable=0;points=[[0,0.5],[1,0.5]];portConstraint=eastwest;whiteSpace=wrap;html=1;" parent="3yT8356qW33JT61PNnHo-3" vertex="1">
          <mxGeometry y="822" width="390" height="52" as="geometry" />
        </mxCell>
        <mxCell id="OUiPq4jIBrS2TNY35F44-58" value="+&amp;nbsp;RemoveRestrictedStoriesAudienceUserFromCurrentUser(profile: UserProfileSocialNetworkInfo, user: User): bool" style="text;strokeColor=none;fillColor=none;align=left;verticalAlign=top;spacingLeft=4;spacingRight=4;overflow=hidden;rotatable=0;points=[[0,0.5],[1,0.5]];portConstraint=eastwest;whiteSpace=wrap;html=1;" parent="3yT8356qW33JT61PNnHo-3" vertex="1">
          <mxGeometry y="874" width="390" height="52" as="geometry" />
        </mxCell>
        <mxCell id="OUiPq4jIBrS2TNY35F44-60" value="+ CreateGroupToRepository(groupName: string, members: List&amp;lt;User&amp;gt;): bool" style="text;strokeColor=none;fillColor=none;align=left;verticalAlign=top;spacingLeft=4;spacingRight=4;overflow=hidden;rotatable=0;points=[[0,0.5],[1,0.5]];portConstraint=eastwest;whiteSpace=wrap;html=1;" parent="3yT8356qW33JT61PNnHo-3" vertex="1">
          <mxGeometry y="926" width="390" height="44" as="geometry" />
        </mxCell>
        <mxCell id="OUiPq4jIBrS2TNY35F44-61" value="+ DeleteGroupFromRepository(groupName: string): bool" style="text;strokeColor=none;fillColor=none;align=left;verticalAlign=top;spacingLeft=4;spacingRight=4;overflow=hidden;rotatable=0;points=[[0,0.5],[1,0.5]];portConstraint=eastwest;whiteSpace=wrap;html=1;" parent="3yT8356qW33JT61PNnHo-3" vertex="1">
          <mxGeometry y="970" width="390" height="30" as="geometry" />
        </mxCell>
        <mxCell id="OUiPq4jIBrS2TNY35F44-62" value="+ AddMemberToGroup(groupName: string, member: User): bool" style="text;strokeColor=none;fillColor=none;align=left;verticalAlign=top;spacingLeft=4;spacingRight=4;overflow=hidden;rotatable=0;points=[[0,0.5],[1,0.5]];portConstraint=eastwest;whiteSpace=wrap;html=1;" parent="3yT8356qW33JT61PNnHo-3" vertex="1">
          <mxGeometry y="1000" width="390" height="30" as="geometry" />
        </mxCell>
        <mxCell id="OUiPq4jIBrS2TNY35F44-63" value="+ DeleteMemberToGroup(groupName: string, member: User): bool" style="text;strokeColor=none;fillColor=none;align=left;verticalAlign=top;spacingLeft=4;spacingRight=4;overflow=hidden;rotatable=0;points=[[0,0.5],[1,0.5]];portConstraint=eastwest;whiteSpace=wrap;html=1;" parent="3yT8356qW33JT61PNnHo-3" vertex="1">
          <mxGeometry y="1030" width="390" height="30" as="geometry" />
        </mxCell>
        <mxCell id="OUiPq4jIBrS2TNY35F44-65" value="+ GetUserByName(username: string): List&amp;lt;User&amp;gt;" style="text;strokeColor=none;fillColor=none;align=left;verticalAlign=top;spacingLeft=4;spacingRight=4;overflow=hidden;rotatable=0;points=[[0,0.5],[1,0.5]];portConstraint=eastwest;whiteSpace=wrap;html=1;" parent="3yT8356qW33JT61PNnHo-3" vertex="1">
          <mxGeometry y="1060" width="390" height="30" as="geometry" />
        </mxCell>
        <mxCell id="OUiPq4jIBrS2TNY35F44-64" value="+ AddMemberToGroupProfile(profile: UserProfileSocialNetworkInfo, groupName: string, username: string): void" style="text;strokeColor=none;fillColor=none;align=left;verticalAlign=top;spacingLeft=4;spacingRight=4;overflow=hidden;rotatable=0;points=[[0,0.5],[1,0.5]];portConstraint=eastwest;whiteSpace=wrap;html=1;" parent="3yT8356qW33JT61PNnHo-3" vertex="1">
          <mxGeometry y="1090" width="390" height="40" as="geometry" />
        </mxCell>
        <mxCell id="OUiPq4jIBrS2TNY35F44-69" value="+ GetUserByName(username: string): User" style="text;strokeColor=none;fillColor=none;align=left;verticalAlign=top;spacingLeft=4;spacingRight=4;overflow=hidden;rotatable=0;points=[[0,0.5],[1,0.5]];portConstraint=eastwest;whiteSpace=wrap;html=1;" parent="3yT8356qW33JT61PNnHo-3" vertex="1">
          <mxGeometry y="1130" width="390" height="40" as="geometry" />
        </mxCell>
        <mxCell id="OUiPq4jIBrS2TNY35F44-66" value="+ GetProfileSocialNetworkInfoByUser(username: string): UserProfileSocialNetworkInfo" style="text;strokeColor=none;fillColor=none;align=left;verticalAlign=top;spacingLeft=4;spacingRight=4;overflow=hidden;rotatable=0;points=[[0,0.5],[1,0.5]];portConstraint=eastwest;whiteSpace=wrap;html=1;" parent="3yT8356qW33JT61PNnHo-3" vertex="1">
          <mxGeometry y="1170" width="390" height="40" as="geometry" />
        </mxCell>
        <mxCell id="OUiPq4jIBrS2TNY35F44-67" value="+ GetBlockedProfileByName(profile: UserProfileSocialNetworkInfo, username: string): BlockedProfile" style="text;strokeColor=none;fillColor=none;align=left;verticalAlign=top;spacingLeft=4;spacingRight=4;overflow=hidden;rotatable=0;points=[[0,0.5],[1,0.5]];portConstraint=eastwest;whiteSpace=wrap;html=1;" parent="3yT8356qW33JT61PNnHo-3" vertex="1">
          <mxGeometry y="1210" width="390" height="40" as="geometry" />
        </mxCell>
        <mxCell id="OUiPq4jIBrS2TNY35F44-68" value="+ GetCloseFriendByName(profile: UserProfileSocialNetworkInfo, username: string): bool" style="text;strokeColor=none;fillColor=none;align=left;verticalAlign=top;spacingLeft=4;spacingRight=4;overflow=hidden;rotatable=0;points=[[0,0.5],[1,0.5]];portConstraint=eastwest;whiteSpace=wrap;html=1;" parent="3yT8356qW33JT61PNnHo-3" vertex="1">
          <mxGeometry y="1250" width="390" height="40" as="geometry" />
        </mxCell>
        <mxCell id="OUiPq4jIBrS2TNY35F44-71" value="+ SwitchAccountPrivacyPublicPrivate(currentConnectedUser: User): void" style="text;strokeColor=none;fillColor=none;align=left;verticalAlign=top;spacingLeft=4;spacingRight=4;overflow=hidden;rotatable=0;points=[[0,0.5],[1,0.5]];portConstraint=eastwest;whiteSpace=wrap;html=1;" parent="3yT8356qW33JT61PNnHo-3" vertex="1">
          <mxGeometry y="1290" width="390" height="40" as="geometry" />
        </mxCell>
        <mxCell id="mbNu1JkJSxgDgJ7gaiAV-0" value="+ QuickSortBlockedProfiles(compareFunction: Func&amp;lt;BlockedProfile, BlockedProfiel, int&amp;gt;): void" style="text;strokeColor=none;fillColor=none;align=left;verticalAlign=top;spacingLeft=4;spacingRight=4;overflow=hidden;rotatable=0;points=[[0,0.5],[1,0.5]];portConstraint=eastwest;whiteSpace=wrap;html=1;" vertex="1" parent="3yT8356qW33JT61PNnHo-3">
          <mxGeometry y="1330" width="390" height="40" as="geometry" />
        </mxCell>
        <mxCell id="7rRwgbb3iHMXLxLH9fKi-0" value="+&amp;nbsp;SaveDataIntoXML(): void" style="text;strokeColor=none;fillColor=none;align=left;verticalAlign=top;spacingLeft=4;spacingRight=4;overflow=hidden;rotatable=0;points=[[0,0.5],[1,0.5]];portConstraint=eastwest;whiteSpace=wrap;html=1;" vertex="1" parent="3yT8356qW33JT61PNnHo-3">
          <mxGeometry y="1370" width="390" height="40" as="geometry" />
        </mxCell>
        <mxCell id="mbNu1JkJSxgDgJ7gaiAV-1" value="+ QuickSortRestrictedPostsAudience(compareFunction: Func&amp;lt;User, User, int&amp;gt;): void" style="text;strokeColor=none;fillColor=none;align=left;verticalAlign=top;spacingLeft=4;spacingRight=4;overflow=hidden;rotatable=0;points=[[0,0.5],[1,0.5]];portConstraint=eastwest;whiteSpace=wrap;html=1;" vertex="1" parent="3yT8356qW33JT61PNnHo-3">
          <mxGeometry y="1410" width="390" height="40" as="geometry" />
        </mxCell>
        <mxCell id="OUiPq4jIBrS2TNY35F44-72" value="+&amp;nbsp;SaveUsersToXML(): void" style="text;strokeColor=none;fillColor=none;align=left;verticalAlign=top;spacingLeft=4;spacingRight=4;overflow=hidden;rotatable=0;points=[[0,0.5],[1,0.5]];portConstraint=eastwest;whiteSpace=wrap;html=1;" parent="3yT8356qW33JT61PNnHo-3" vertex="1">
          <mxGeometry y="1450" width="390" height="40" as="geometry" />
        </mxCell>
        <mxCell id="mbNu1JkJSxgDgJ7gaiAV-2" value="+ QuickSortRestrictedStoriesAudience(compareFunction: Func&amp;lt;User, User, int&amp;gt;): void" style="text;strokeColor=none;fillColor=none;align=left;verticalAlign=top;spacingLeft=4;spacingRight=4;overflow=hidden;rotatable=0;points=[[0,0.5],[1,0.5]];portConstraint=eastwest;whiteSpace=wrap;html=1;" vertex="1" parent="3yT8356qW33JT61PNnHo-3">
          <mxGeometry y="1490" width="390" height="40" as="geometry" />
        </mxCell>
        <mxCell id="7rRwgbb3iHMXLxLH9fKi-1" value="+ LoadUsersFromXML(): void" style="text;strokeColor=none;fillColor=none;align=left;verticalAlign=top;spacingLeft=4;spacingRight=4;overflow=hidden;rotatable=0;points=[[0,0.5],[1,0.5]];portConstraint=eastwest;whiteSpace=wrap;html=1;" vertex="1" parent="3yT8356qW33JT61PNnHo-3">
          <mxGeometry y="1530" width="390" height="40" as="geometry" />
        </mxCell>
        <mxCell id="mbNu1JkJSxgDgJ7gaiAV-3" value="+ QuickSortCloseFriends(compareFunction: Func&amp;lt;CloseFriendProfile, CloseFriendProfile, int&amp;gt;): void" style="text;strokeColor=none;fillColor=none;align=left;verticalAlign=top;spacingLeft=4;spacingRight=4;overflow=hidden;rotatable=0;points=[[0,0.5],[1,0.5]];portConstraint=eastwest;whiteSpace=wrap;html=1;" vertex="1" parent="3yT8356qW33JT61PNnHo-3">
          <mxGeometry y="1570" width="390" height="40" as="geometry" />
        </mxCell>
        <mxCell id="7rRwgbb3iHMXLxLH9fKi-2" value="+ UpdatePassword(email:string, newPassword:string): bool" style="text;strokeColor=none;fillColor=none;align=left;verticalAlign=top;spacingLeft=4;spacingRight=4;overflow=hidden;rotatable=0;points=[[0,0.5],[1,0.5]];portConstraint=eastwest;whiteSpace=wrap;html=1;" vertex="1" parent="3yT8356qW33JT61PNnHo-3">
          <mxGeometry y="1610" width="390" height="40" as="geometry" />
        </mxCell>
        <mxCell id="mbNu1JkJSxgDgJ7gaiAV-4" value="+ QuickSortGroups(compareFunction: Func&amp;lt;Group, Group, int&amp;gt;): void" style="text;strokeColor=none;fillColor=none;align=left;verticalAlign=top;spacingLeft=4;spacingRight=4;overflow=hidden;rotatable=0;points=[[0,0.5],[1,0.5]];portConstraint=eastwest;whiteSpace=wrap;html=1;" vertex="1" parent="3yT8356qW33JT61PNnHo-3">
          <mxGeometry y="1650" width="390" height="40" as="geometry" />
        </mxCell>
        <mxCell id="7rRwgbb3iHMXLxLH9fKi-4" value="+AddUsers(user:User): void" style="text;strokeColor=none;fillColor=none;align=left;verticalAlign=top;spacingLeft=4;spacingRight=4;overflow=hidden;rotatable=0;points=[[0,0.5],[1,0.5]];portConstraint=eastwest;whiteSpace=wrap;html=1;" vertex="1" parent="3yT8356qW33JT61PNnHo-3">
          <mxGeometry y="1690" width="390" height="40" as="geometry" />
        </mxCell>
        <mxCell id="7rRwgbb3iHMXLxLH9fKi-3" value="+ GetAllUsers(): User" style="text;strokeColor=none;fillColor=none;align=left;verticalAlign=top;spacingLeft=4;spacingRight=4;overflow=hidden;rotatable=0;points=[[0,0.5],[1,0.5]];portConstraint=eastwest;whiteSpace=wrap;html=1;" vertex="1" parent="3yT8356qW33JT61PNnHo-3">
          <mxGeometry y="1730" width="390" height="40" as="geometry" />
        </mxCell>
        <mxCell id="7rRwgbb3iHMXLxLH9fKi-5" value="+ getFollowersCount(username:string): int" style="text;strokeColor=none;fillColor=none;align=left;verticalAlign=top;spacingLeft=4;spacingRight=4;overflow=hidden;rotatable=0;points=[[0,0.5],[1,0.5]];portConstraint=eastwest;whiteSpace=wrap;html=1;" vertex="1" parent="3yT8356qW33JT61PNnHo-3">
          <mxGeometry y="1770" width="390" height="40" as="geometry" />
        </mxCell>
        <mxCell id="7rRwgbb3iHMXLxLH9fKi-6" value="+ getFollowingCount(username:string): int" style="text;strokeColor=none;fillColor=none;align=left;verticalAlign=top;spacingLeft=4;spacingRight=4;overflow=hidden;rotatable=0;points=[[0,0.5],[1,0.5]];portConstraint=eastwest;whiteSpace=wrap;html=1;" vertex="1" parent="3yT8356qW33JT61PNnHo-3">
          <mxGeometry y="1810" width="390" height="40" as="geometry" />
        </mxCell>
        <mxCell id="7rRwgbb3iHMXLxLH9fKi-7" value="+ getUserByUsernameOrEmail(usernameOrEmail: string): User" style="text;strokeColor=none;fillColor=none;align=left;verticalAlign=top;spacingLeft=4;spacingRight=4;overflow=hidden;rotatable=0;points=[[0,0.5],[1,0.5]];portConstraint=eastwest;whiteSpace=wrap;html=1;" vertex="1" parent="3yT8356qW33JT61PNnHo-3">
          <mxGeometry y="1850" width="390" height="40" as="geometry" />
        </mxCell>
        <mxCell id="7rRwgbb3iHMXLxLH9fKi-8" value="+ usernameExists(username: string): bool" style="text;strokeColor=none;fillColor=none;align=left;verticalAlign=top;spacingLeft=4;spacingRight=4;overflow=hidden;rotatable=0;points=[[0,0.5],[1,0.5]];portConstraint=eastwest;whiteSpace=wrap;html=1;" vertex="1" parent="3yT8356qW33JT61PNnHo-3">
          <mxGeometry y="1890" width="390" height="40" as="geometry" />
        </mxCell>
        <mxCell id="7rRwgbb3iHMXLxLH9fKi-9" value="+ emailExists(username: string): bool" style="text;strokeColor=none;fillColor=none;align=left;verticalAlign=top;spacingLeft=4;spacingRight=4;overflow=hidden;rotatable=0;points=[[0,0.5],[1,0.5]];portConstraint=eastwest;whiteSpace=wrap;html=1;" vertex="1" parent="3yT8356qW33JT61PNnHo-3">
          <mxGeometry y="1930" width="390" height="40" as="geometry" />
        </mxCell>
        <mxCell id="3yT8356qW33JT61PNnHo-81" value="MockPhotoPost" style="swimlane;fontStyle=1;align=center;verticalAlign=top;childLayout=stackLayout;horizontal=1;startSize=26;horizontalStack=0;resizeParent=1;resizeParentMax=0;resizeLast=0;collapsible=1;marginBottom=0;whiteSpace=wrap;html=1;" parent="WIyWlLk6GJQsqaUBKTNV-1" vertex="1">
          <mxGeometry x="760" y="2110" width="190" height="86" as="geometry" />
        </mxCell>
        <mxCell id="QVfi3se21Ql85yWSjc6v-3" value="-description: string" style="text;strokeColor=none;fillColor=none;align=left;verticalAlign=top;spacingLeft=4;spacingRight=4;overflow=hidden;rotatable=0;points=[[0,0.5],[1,0.5]];portConstraint=eastwest;whiteSpace=wrap;html=1;" parent="3yT8356qW33JT61PNnHo-81" vertex="1">
          <mxGeometry y="26" width="190" height="26" as="geometry" />
        </mxCell>
        <mxCell id="QVfi3se21Ql85yWSjc6v-2" value="-photo: File" style="text;strokeColor=none;fillColor=none;align=left;verticalAlign=top;spacingLeft=4;spacingRight=4;overflow=hidden;rotatable=0;points=[[0,0.5],[1,0.5]];portConstraint=eastwest;whiteSpace=wrap;html=1;" parent="3yT8356qW33JT61PNnHo-81" vertex="1">
          <mxGeometry y="52" width="190" height="26" as="geometry" />
        </mxCell>
        <mxCell id="3yT8356qW33JT61PNnHo-83" value="" style="line;strokeWidth=1;fillColor=none;align=left;verticalAlign=middle;spacingTop=-1;spacingLeft=3;spacingRight=3;rotatable=0;labelPosition=right;points=[];portConstraint=eastwest;strokeColor=inherit;" parent="3yT8356qW33JT61PNnHo-81" vertex="1">
          <mxGeometry y="78" width="190" height="8" as="geometry" />
        </mxCell>
        <mxCell id="3yT8356qW33JT61PNnHo-84" value="MockPost" style="swimlane;fontStyle=1;align=center;verticalAlign=top;childLayout=stackLayout;horizontal=1;startSize=26;horizontalStack=0;resizeParent=1;resizeParentMax=0;resizeLast=0;collapsible=1;marginBottom=0;whiteSpace=wrap;html=1;" parent="WIyWlLk6GJQsqaUBKTNV-1" vertex="1">
          <mxGeometry x="420" y="1840" width="240" height="164" as="geometry" />
        </mxCell>
        <mxCell id="3yT8356qW33JT61PNnHo-85" value="-postId: guid" style="text;strokeColor=none;fillColor=none;align=left;verticalAlign=top;spacingLeft=4;spacingRight=4;overflow=hidden;rotatable=0;points=[[0,0.5],[1,0.5]];portConstraint=eastwest;whiteSpace=wrap;html=1;" parent="3yT8356qW33JT61PNnHo-84" vertex="1">
          <mxGeometry y="26" width="240" height="26" as="geometry" />
        </mxCell>
        <mxCell id="3yT8356qW33JT61PNnHo-87" value="-owner: User" style="text;strokeColor=none;fillColor=none;align=left;verticalAlign=top;spacingLeft=4;spacingRight=4;overflow=hidden;rotatable=0;points=[[0,0.5],[1,0.5]];portConstraint=eastwest;whiteSpace=wrap;html=1;" parent="3yT8356qW33JT61PNnHo-84" vertex="1">
          <mxGeometry y="52" width="240" height="26" as="geometry" />
        </mxCell>
        <mxCell id="7Z-h_UDIuQHWzcK5ADaV-2" value="-reactions: Dictionary&amp;lt;int, List&amp;lt;User&amp;gt;" style="text;strokeColor=none;fillColor=none;align=left;verticalAlign=top;spacingLeft=4;spacingRight=4;overflow=hidden;rotatable=0;points=[[0,0.5],[1,0.5]];portConstraint=eastwest;whiteSpace=wrap;html=1;" parent="3yT8356qW33JT61PNnHo-84" vertex="1">
          <mxGeometry y="78" width="240" height="26" as="geometry" />
        </mxCell>
        <mxCell id="7Z-h_UDIuQHWzcK5ADaV-0" value="-mentionedUsers: List&amp;lt;User&amp;gt;" style="text;strokeColor=none;fillColor=none;align=left;verticalAlign=top;spacingLeft=4;spacingRight=4;overflow=hidden;rotatable=0;points=[[0,0.5],[1,0.5]];portConstraint=eastwest;whiteSpace=wrap;html=1;" parent="3yT8356qW33JT61PNnHo-84" vertex="1">
          <mxGeometry y="104" width="240" height="26" as="geometry" />
        </mxCell>
        <mxCell id="3yT8356qW33JT61PNnHo-88" value="-title: string" style="text;strokeColor=none;fillColor=none;align=left;verticalAlign=top;spacingLeft=4;spacingRight=4;overflow=hidden;rotatable=0;points=[[0,0.5],[1,0.5]];portConstraint=eastwest;whiteSpace=wrap;html=1;" parent="3yT8356qW33JT61PNnHo-84" vertex="1">
          <mxGeometry y="130" width="240" height="26" as="geometry" />
        </mxCell>
        <mxCell id="3yT8356qW33JT61PNnHo-86" value="" style="line;strokeWidth=1;fillColor=none;align=left;verticalAlign=middle;spacingTop=-1;spacingLeft=3;spacingRight=3;rotatable=0;labelPosition=right;points=[];portConstraint=eastwest;strokeColor=inherit;" parent="3yT8356qW33JT61PNnHo-84" vertex="1">
          <mxGeometry y="156" width="240" height="8" as="geometry" />
        </mxCell>
        <mxCell id="3yT8356qW33JT61PNnHo-94" value="Extends" style="endArrow=block;endSize=16;endFill=0;html=1;rounded=0;exitX=0.488;exitY=-0.109;exitDx=0;exitDy=0;exitPerimeter=0;" parent="WIyWlLk6GJQsqaUBKTNV-1" source="3yT8356qW33JT61PNnHo-81" target="3yT8356qW33JT61PNnHo-84" edge="1">
          <mxGeometry width="160" relative="1" as="geometry">
            <mxPoint x="235" y="1169" as="sourcePoint" />
            <mxPoint x="395" y="1169" as="targetPoint" />
          </mxGeometry>
        </mxCell>
        <mxCell id="3yT8356qW33JT61PNnHo-132" value="SnapshotsService" style="swimlane;fontStyle=1;align=center;verticalAlign=top;childLayout=stackLayout;horizontal=1;startSize=26;horizontalStack=0;resizeParent=1;resizeParentMax=0;resizeLast=0;collapsible=1;marginBottom=0;whiteSpace=wrap;html=1;" parent="WIyWlLk6GJQsqaUBKTNV-1" vertex="1">
          <mxGeometry x="10" y="762" width="375" height="240" as="geometry" />
        </mxCell>
        <mxCell id="3yT8356qW33JT61PNnHo-133" value="-snapshotsRepo: SnapshotsRepository&lt;div&gt;-userId: Guid&lt;/div&gt;" style="text;strokeColor=none;fillColor=none;align=left;verticalAlign=top;spacingLeft=4;spacingRight=4;overflow=hidden;rotatable=0;points=[[0,0.5],[1,0.5]];portConstraint=eastwest;whiteSpace=wrap;html=1;" parent="3yT8356qW33JT61PNnHo-132" vertex="1">
          <mxGeometry y="26" width="375" height="54" as="geometry" />
        </mxCell>
        <mxCell id="3yT8356qW33JT61PNnHo-134" value="" style="line;strokeWidth=1;fillColor=none;align=left;verticalAlign=middle;spacingTop=-1;spacingLeft=3;spacingRight=3;rotatable=0;labelPosition=right;points=[];portConstraint=eastwest;strokeColor=inherit;" parent="3yT8356qW33JT61PNnHo-132" vertex="1">
          <mxGeometry y="80" width="375" height="8" as="geometry" />
        </mxCell>
        <mxCell id="3yT8356qW33JT61PNnHo-135" value="+SnapshotsService(currentUserId: Guid)" style="text;strokeColor=none;fillColor=none;align=left;verticalAlign=top;spacingLeft=4;spacingRight=4;overflow=hidden;rotatable=0;points=[[0,0.5],[1,0.5]];portConstraint=eastwest;whiteSpace=wrap;html=1;" parent="3yT8356qW33JT61PNnHo-132" vertex="1">
          <mxGeometry y="88" width="375" height="26" as="geometry" />
        </mxCell>
        <mxCell id="3yT8356qW33JT61PNnHo-136" value="+addHighlight(newHighlightName: string, newHighlightCover:string,guids: List&amp;lt;Guid&amp;gt;&lt;div&gt;+removeHighlight(Highlight highlight): bool&lt;/div&gt;&lt;div&gt;+addPostToHighlight(highlightId: Guid, postId: Guid):bool&lt;/div&gt;&lt;div&gt;+removePostFromHighlight(highlightId:Guid, postId:Guid):bool&lt;/div&gt;&lt;div&gt;+getHighlightsOfUser(): List&amp;lt;Highlight&amp;gt;&lt;/div&gt;&lt;div&gt;+getHighlight(highlight:Guid):Highlight&lt;/div&gt;&lt;div&gt;+getPostsOfHighlight(highlightId: Guid):List&amp;lt;MockPhotoPost&amp;gt;&lt;/div&gt;" style="text;strokeColor=none;fillColor=none;align=left;verticalAlign=top;spacingLeft=4;spacingRight=4;overflow=hidden;rotatable=0;points=[[0,0.5],[1,0.5]];portConstraint=eastwest;whiteSpace=wrap;html=1;" parent="3yT8356qW33JT61PNnHo-132" vertex="1">
          <mxGeometry y="114" width="375" height="126" as="geometry" />
        </mxCell>
        <mxCell id="3yT8356qW33JT61PNnHo-139" value="" style="endArrow=open;shadow=0;strokeWidth=1;rounded=0;curved=0;endFill=1;edgeStyle=elbowEdgeStyle;elbow=vertical;exitX=-0.006;exitY=0.79;exitDx=0;exitDy=0;exitPerimeter=0;entryX=0.15;entryY=-0.009;entryDx=0;entryDy=0;entryPerimeter=0;" parent="WIyWlLk6GJQsqaUBKTNV-1" source="3yT8356qW33JT61PNnHo-131" target="3yT8356qW33JT61PNnHo-132" edge="1">
          <mxGeometry x="0.5" y="41" relative="1" as="geometry">
            <mxPoint x="52.5" y="630" as="sourcePoint" />
            <mxPoint x="12" y="540" as="targetPoint" />
            <mxPoint x="-40" y="32" as="offset" />
            <Array as="points">
              <mxPoint x="200" y="520" />
            </Array>
          </mxGeometry>
        </mxCell>
        <mxCell id="3yT8356qW33JT61PNnHo-140" value="1" style="resizable=0;align=left;verticalAlign=bottom;labelBackgroundColor=none;fontSize=12;" parent="3yT8356qW33JT61PNnHo-139" connectable="0" vertex="1">
          <mxGeometry x="-1" relative="1" as="geometry">
            <mxPoint y="4" as="offset" />
          </mxGeometry>
        </mxCell>
        <mxCell id="3yT8356qW33JT61PNnHo-141" value="1" style="resizable=0;align=right;verticalAlign=bottom;labelBackgroundColor=none;fontSize=12;" parent="3yT8356qW33JT61PNnHo-139" connectable="0" vertex="1">
          <mxGeometry x="1" relative="1" as="geometry">
            <mxPoint x="-7" y="4" as="offset" />
          </mxGeometry>
        </mxCell>
        <mxCell id="3yT8356qW33JT61PNnHo-142" value="SnapshotsRepo" style="swimlane;fontStyle=1;align=center;verticalAlign=top;childLayout=stackLayout;horizontal=1;startSize=26;horizontalStack=0;resizeParent=1;resizeParentMax=0;resizeLast=0;collapsible=1;marginBottom=0;whiteSpace=wrap;html=1;" parent="WIyWlLk6GJQsqaUBKTNV-1" vertex="1">
          <mxGeometry x="160" y="1060" width="340" height="268" as="geometry" />
        </mxCell>
        <mxCell id="3yT8356qW33JT61PNnHo-146" value="-HighlightsRepo:HighlightsRepo&lt;div&gt;-userId: Guid&lt;/div&gt;" style="text;strokeColor=none;fillColor=none;align=left;verticalAlign=top;spacingLeft=4;spacingRight=4;overflow=hidden;rotatable=0;points=[[0,0.5],[1,0.5]];portConstraint=eastwest;whiteSpace=wrap;html=1;" parent="3yT8356qW33JT61PNnHo-142" vertex="1">
          <mxGeometry y="26" width="340" height="44" as="geometry" />
        </mxCell>
        <mxCell id="3yT8356qW33JT61PNnHo-144" value="" style="line;strokeWidth=1;fillColor=none;align=left;verticalAlign=middle;spacingTop=-1;spacingLeft=3;spacingRight=3;rotatable=0;labelPosition=right;points=[];portConstraint=eastwest;strokeColor=inherit;" parent="3yT8356qW33JT61PNnHo-142" vertex="1">
          <mxGeometry y="70" width="340" height="8" as="geometry" />
        </mxCell>
        <mxCell id="3yT8356qW33JT61PNnHo-145" value="+addHighlight(highlightToAdd:MockPost):bool" style="text;strokeColor=none;fillColor=none;align=left;verticalAlign=top;spacingLeft=4;spacingRight=4;overflow=hidden;rotatable=0;points=[[0,0.5],[1,0.5]];portConstraint=eastwest;whiteSpace=wrap;html=1;" parent="3yT8356qW33JT61PNnHo-142" vertex="1">
          <mxGeometry y="78" width="340" height="26" as="geometry" />
        </mxCell>
        <mxCell id="3yT8356qW33JT61PNnHo-147" value="+addPostToHighlight(highlightId: Guid, postId:Guid): bool&lt;div&gt;&lt;br&gt;&lt;/div&gt;" style="text;strokeColor=none;fillColor=none;align=left;verticalAlign=top;spacingLeft=4;spacingRight=4;overflow=hidden;rotatable=0;points=[[0,0.5],[1,0.5]];portConstraint=eastwest;whiteSpace=wrap;html=1;" parent="3yT8356qW33JT61PNnHo-142" vertex="1">
          <mxGeometry y="104" width="340" height="26" as="geometry" />
        </mxCell>
        <mxCell id="3yT8356qW33JT61PNnHo-155" value="+removePostFromHighlight(highlightId: Guid, postId: Guid)" style="text;strokeColor=none;fillColor=none;align=left;verticalAlign=top;spacingLeft=4;spacingRight=4;overflow=hidden;rotatable=0;points=[[0,0.5],[1,0.5]];portConstraint=eastwest;whiteSpace=wrap;html=1;" parent="3yT8356qW33JT61PNnHo-142" vertex="1">
          <mxGeometry y="130" width="340" height="26" as="geometry" />
        </mxCell>
        <mxCell id="3yT8356qW33JT61PNnHo-148" value="+GetHighlightsOfUser(): List&amp;lt;Highlight&amp;gt;" style="text;strokeColor=none;fillColor=none;align=left;verticalAlign=top;spacingLeft=4;spacingRight=4;overflow=hidden;rotatable=0;points=[[0,0.5],[1,0.5]];portConstraint=eastwest;whiteSpace=wrap;html=1;" parent="3yT8356qW33JT61PNnHo-142" vertex="1">
          <mxGeometry y="156" width="340" height="26" as="geometry" />
        </mxCell>
        <mxCell id="3yT8356qW33JT61PNnHo-156" value="+GetHighlightsRepo(): HighlightsRepo&lt;div&gt;+getPostsOfHighlight(highlightId: Guid): List&amp;lt;MockPhotoPost&amp;gt;&lt;/div&gt;&lt;div&gt;+getHighlight(highlightId: Gui): Highlight&lt;/div&gt;&lt;div&gt;+removeHighlight(highlightToRemove:MockPost):bool&lt;br&gt;&lt;/div&gt;" style="text;strokeColor=none;fillColor=none;align=left;verticalAlign=top;spacingLeft=4;spacingRight=4;overflow=hidden;rotatable=0;points=[[0,0.5],[1,0.5]];portConstraint=eastwest;whiteSpace=wrap;html=1;" parent="3yT8356qW33JT61PNnHo-142" vertex="1">
          <mxGeometry y="182" width="340" height="86" as="geometry" />
        </mxCell>
        <mxCell id="3yT8356qW33JT61PNnHo-160" value="" style="endArrow=open;shadow=0;strokeWidth=1;rounded=0;curved=0;endFill=1;edgeStyle=elbowEdgeStyle;elbow=vertical;exitX=-0.005;exitY=0.203;exitDx=0;exitDy=0;entryX=0.021;entryY=0.089;entryDx=0;entryDy=0;entryPerimeter=0;exitPerimeter=0;" parent="WIyWlLk6GJQsqaUBKTNV-1" target="3yT8356qW33JT61PNnHo-84" edge="1">
          <mxGeometry x="0.5" y="41" relative="1" as="geometry">
            <mxPoint x="158.5" y="1059.2779999999998" as="sourcePoint" />
            <mxPoint x="-730" y="1109" as="targetPoint" />
            <mxPoint x="-40" y="32" as="offset" />
            <Array as="points">
              <mxPoint x="-150" y="1520" />
            </Array>
          </mxGeometry>
        </mxCell>
        <mxCell id="3yT8356qW33JT61PNnHo-161" value="1" style="resizable=0;align=left;verticalAlign=bottom;labelBackgroundColor=none;fontSize=12;" parent="3yT8356qW33JT61PNnHo-160" connectable="0" vertex="1">
          <mxGeometry x="-1" relative="1" as="geometry">
            <mxPoint y="4" as="offset" />
          </mxGeometry>
        </mxCell>
        <mxCell id="3yT8356qW33JT61PNnHo-162" value="0....*" style="resizable=0;align=right;verticalAlign=bottom;labelBackgroundColor=none;fontSize=12;" parent="3yT8356qW33JT61PNnHo-160" connectable="0" vertex="1">
          <mxGeometry x="1" relative="1" as="geometry">
            <mxPoint x="-7" y="4" as="offset" />
          </mxGeometry>
        </mxCell>
        <mxCell id="3yT8356qW33JT61PNnHo-311" value="AuthenticationModule" style="swimlane;fontStyle=1;align=center;verticalAlign=top;childLayout=stackLayout;horizontal=1;startSize=26;horizontalStack=0;resizeParent=1;resizeParentMax=0;resizeLast=0;collapsible=1;marginBottom=0;whiteSpace=wrap;html=1;" parent="WIyWlLk6GJQsqaUBKTNV-1" vertex="1">
          <mxGeometry x="-360" y="680" width="295" height="86" as="geometry" />
        </mxCell>
        <mxCell id="3yT8356qW33JT61PNnHo-313" value="" style="line;strokeWidth=1;fillColor=none;align=left;verticalAlign=middle;spacingTop=-1;spacingLeft=3;spacingRight=3;rotatable=0;labelPosition=right;points=[];portConstraint=eastwest;strokeColor=inherit;" parent="3yT8356qW33JT61PNnHo-311" vertex="1">
          <mxGeometry y="26" width="295" height="8" as="geometry" />
        </mxCell>
        <mxCell id="3yT8356qW33JT61PNnHo-314" value="+isUserLoggedIn(username:string):bool" style="text;strokeColor=none;fillColor=none;align=left;verticalAlign=top;spacingLeft=4;spacingRight=4;overflow=hidden;rotatable=0;points=[[0,0.5],[1,0.5]];portConstraint=eastwest;whiteSpace=wrap;html=1;" parent="3yT8356qW33JT61PNnHo-311" vertex="1">
          <mxGeometry y="34" width="295" height="26" as="geometry" />
        </mxCell>
        <mxCell id="YVuoH4td5erzohnSMb-A-10" value="+startOrRenewSession(username:string):bool" style="text;strokeColor=none;fillColor=none;align=left;verticalAlign=top;spacingLeft=4;spacingRight=4;overflow=hidden;rotatable=0;points=[[0,0.5],[1,0.5]];portConstraint=eastwest;whiteSpace=wrap;html=1;" parent="3yT8356qW33JT61PNnHo-311" vertex="1">
          <mxGeometry y="60" width="295" height="26" as="geometry" />
        </mxCell>
        <mxCell id="YVuoH4td5erzohnSMb-A-22" value="" style="endArrow=open;shadow=0;strokeWidth=1;rounded=0;curved=0;endFill=1;edgeStyle=elbowEdgeStyle;elbow=vertical;exitX=1.004;exitY=0.87;exitDx=0;exitDy=0;exitPerimeter=0;entryX=1.008;entryY=0.045;entryDx=0;entryDy=0;entryPerimeter=0;" parent="WIyWlLk6GJQsqaUBKTNV-1" source="3yT8356qW33JT61PNnHo-133" target="3yT8356qW33JT61PNnHo-142" edge="1">
          <mxGeometry x="0.5" y="41" relative="1" as="geometry">
            <mxPoint x="-413" y="510" as="sourcePoint" />
            <mxPoint x="-370" y="660" as="targetPoint" />
            <mxPoint x="-40" y="32" as="offset" />
            <Array as="points">
              <mxPoint x="190" y="820" />
            </Array>
          </mxGeometry>
        </mxCell>
        <mxCell id="YVuoH4td5erzohnSMb-A-23" value="1" style="resizable=0;align=left;verticalAlign=bottom;labelBackgroundColor=none;fontSize=12;" parent="YVuoH4td5erzohnSMb-A-22" connectable="0" vertex="1">
          <mxGeometry x="-1" relative="1" as="geometry">
            <mxPoint y="4" as="offset" />
          </mxGeometry>
        </mxCell>
        <mxCell id="YVuoH4td5erzohnSMb-A-24" value="1" style="resizable=0;align=right;verticalAlign=bottom;labelBackgroundColor=none;fontSize=12;" parent="YVuoH4td5erzohnSMb-A-22" connectable="0" vertex="1">
          <mxGeometry x="1" relative="1" as="geometry">
            <mxPoint x="-7" y="4" as="offset" />
          </mxGeometry>
        </mxCell>
        <mxCell id="YVuoH4td5erzohnSMb-A-25" value="Friends" style="swimlane;fontStyle=1;align=center;verticalAlign=top;childLayout=stackLayout;horizontal=1;startSize=26;horizontalStack=0;resizeParent=1;resizeParentMax=0;resizeLast=0;collapsible=1;marginBottom=0;whiteSpace=wrap;html=1;" parent="WIyWlLk6GJQsqaUBKTNV-1" vertex="1">
          <mxGeometry x="44" y="-240" width="370" height="268" as="geometry" />
        </mxCell>
        <mxCell id="YVuoH4td5erzohnSMb-A-26" value="-syncContacts:Dictionary&amp;lt;string, UserInfo&amp;gt;" style="text;strokeColor=none;fillColor=none;align=left;verticalAlign=top;spacingLeft=4;spacingRight=4;overflow=hidden;rotatable=0;points=[[0,0.5],[1,0.5]];portConstraint=eastwest;whiteSpace=wrap;html=1;" parent="YVuoH4td5erzohnSMb-A-25" vertex="1">
          <mxGeometry y="26" width="370" height="26" as="geometry" />
        </mxCell>
        <mxCell id="YVuoH4td5erzohnSMb-A-29" value="-usernames_viewers:Dictionary&amp;lt;string, UserInfo&amp;gt;" style="text;strokeColor=none;fillColor=none;align=left;verticalAlign=top;spacingLeft=4;spacingRight=4;overflow=hidden;rotatable=0;points=[[0,0.5],[1,0.5]];portConstraint=eastwest;whiteSpace=wrap;html=1;" parent="YVuoH4td5erzohnSMb-A-25" vertex="1">
          <mxGeometry y="52" width="370" height="26" as="geometry" />
        </mxCell>
        <mxCell id="XqwIXgYBdCiV65NhYHDk-0" value="-friends:Dictionary&amp;lt;string, UserInfo&amp;gt;" style="text;strokeColor=none;fillColor=none;align=left;verticalAlign=top;spacingLeft=4;spacingRight=4;overflow=hidden;rotatable=0;points=[[0,0.5],[1,0.5]];portConstraint=eastwest;whiteSpace=wrap;html=1;" vertex="1" parent="YVuoH4td5erzohnSMb-A-25">
          <mxGeometry y="78" width="370" height="26" as="geometry" />
        </mxCell>
        <mxCell id="YVuoH4td5erzohnSMb-A-27" value="" style="line;strokeWidth=1;fillColor=none;align=left;verticalAlign=middle;spacingTop=-1;spacingLeft=3;spacingRight=3;rotatable=0;labelPosition=right;points=[];portConstraint=eastwest;strokeColor=inherit;" parent="YVuoH4td5erzohnSMb-A-25" vertex="1">
          <mxGeometry y="104" width="370" height="8" as="geometry" />
        </mxCell>
        <mxCell id="XqwIXgYBdCiV65NhYHDk-1" value="-getContacts():Dictionary&amp;lt;string, UserInfo&amp;gt;" style="text;strokeColor=none;fillColor=none;align=left;verticalAlign=top;spacingLeft=4;spacingRight=4;overflow=hidden;rotatable=0;points=[[0,0.5],[1,0.5]];portConstraint=eastwest;whiteSpace=wrap;html=1;" vertex="1" parent="YVuoH4td5erzohnSMb-A-25">
          <mxGeometry y="112" width="370" height="26" as="geometry" />
        </mxCell>
        <mxCell id="XqwIXgYBdCiV65NhYHDk-2" value="-getViewers():Dictionary&amp;lt;string, UserInfo&amp;gt;" style="text;strokeColor=none;fillColor=none;align=left;verticalAlign=top;spacingLeft=4;spacingRight=4;overflow=hidden;rotatable=0;points=[[0,0.5],[1,0.5]];portConstraint=eastwest;whiteSpace=wrap;html=1;" vertex="1" parent="YVuoH4td5erzohnSMb-A-25">
          <mxGeometry y="138" width="370" height="26" as="geometry" />
        </mxCell>
        <mxCell id="XqwIXgYBdCiV65NhYHDk-3" value="-getFriends():Dictionary&amp;lt;string, UserInfo&amp;gt;" style="text;strokeColor=none;fillColor=none;align=left;verticalAlign=top;spacingLeft=4;spacingRight=4;overflow=hidden;rotatable=0;points=[[0,0.5],[1,0.5]];portConstraint=eastwest;whiteSpace=wrap;html=1;" vertex="1" parent="YVuoH4td5erzohnSMb-A-25">
          <mxGeometry y="164" width="370" height="26" as="geometry" />
        </mxCell>
        <mxCell id="XqwIXgYBdCiV65NhYHDk-4" value="+SaveFriendsToXml():void" style="text;strokeColor=none;fillColor=none;align=left;verticalAlign=top;spacingLeft=4;spacingRight=4;overflow=hidden;rotatable=0;points=[[0,0.5],[1,0.5]];portConstraint=eastwest;whiteSpace=wrap;html=1;" vertex="1" parent="YVuoH4td5erzohnSMb-A-25">
          <mxGeometry y="190" width="370" height="26" as="geometry" />
        </mxCell>
        <mxCell id="YVuoH4td5erzohnSMb-A-33" value="-addSyncContact(contactToAdd:User, key:string):bool" style="text;strokeColor=none;fillColor=none;align=left;verticalAlign=top;spacingLeft=4;spacingRight=4;overflow=hidden;rotatable=0;points=[[0,0.5],[1,0.5]];portConstraint=eastwest;whiteSpace=wrap;html=1;" parent="YVuoH4td5erzohnSMb-A-25" vertex="1">
          <mxGeometry y="216" width="370" height="26" as="geometry" />
        </mxCell>
        <mxCell id="YVuoH4td5erzohnSMb-A-31" value="-removeSyncContact(key:string):bool" style="text;strokeColor=none;fillColor=none;align=left;verticalAlign=top;spacingLeft=4;spacingRight=4;overflow=hidden;rotatable=0;points=[[0,0.5],[1,0.5]];portConstraint=eastwest;whiteSpace=wrap;html=1;" parent="YVuoH4td5erzohnSMb-A-25" vertex="1">
          <mxGeometry y="242" width="370" height="26" as="geometry" />
        </mxCell>
        <mxCell id="Jgvn7Q0khOcXt6AM1Krj-0" value="UI" style="swimlane;fontStyle=1;align=center;verticalAlign=top;childLayout=stackLayout;horizontal=1;startSize=26;horizontalStack=0;resizeParent=1;resizeParentMax=0;resizeLast=0;collapsible=1;marginBottom=0;whiteSpace=wrap;html=1;" parent="WIyWlLk6GJQsqaUBKTNV-1" vertex="1">
          <mxGeometry x="640" y="300" width="310" height="112" as="geometry" />
        </mxCell>
        <mxCell id="Jgvn7Q0khOcXt6AM1Krj-1" value="-casualProfileService:CasualProfileService" style="text;strokeColor=none;fillColor=none;align=left;verticalAlign=top;spacingLeft=4;spacingRight=4;overflow=hidden;rotatable=0;points=[[0,0.5],[1,0.5]];portConstraint=eastwest;whiteSpace=wrap;html=1;" parent="Jgvn7Q0khOcXt6AM1Krj-0" vertex="1">
          <mxGeometry y="26" width="310" height="26" as="geometry" />
        </mxCell>
        <mxCell id="Jgvn7Q0khOcXt6AM1Krj-44" value="-professionalProfileService:ProfessionalProfileService" style="text;strokeColor=none;fillColor=none;align=left;verticalAlign=top;spacingLeft=4;spacingRight=4;overflow=hidden;rotatable=0;points=[[0,0.5],[1,0.5]];portConstraint=eastwest;whiteSpace=wrap;html=1;" parent="Jgvn7Q0khOcXt6AM1Krj-0" vertex="1">
          <mxGeometry y="52" width="310" height="26" as="geometry" />
        </mxCell>
        <mxCell id="Jgvn7Q0khOcXt6AM1Krj-2" value="" style="line;strokeWidth=1;fillColor=none;align=left;verticalAlign=middle;spacingTop=-1;spacingLeft=3;spacingRight=3;rotatable=0;labelPosition=right;points=[];portConstraint=eastwest;strokeColor=inherit;" parent="Jgvn7Q0khOcXt6AM1Krj-0" vertex="1">
          <mxGeometry y="78" width="310" height="8" as="geometry" />
        </mxCell>
        <mxCell id="Jgvn7Q0khOcXt6AM1Krj-45" value="+switchProfiles():bool" style="text;strokeColor=none;fillColor=none;align=left;verticalAlign=top;spacingLeft=4;spacingRight=4;overflow=hidden;rotatable=0;points=[[0,0.5],[1,0.5]];portConstraint=eastwest;whiteSpace=wrap;html=1;" parent="Jgvn7Q0khOcXt6AM1Krj-0" vertex="1">
          <mxGeometry y="86" width="310" height="26" as="geometry" />
        </mxCell>
        <mxCell id="Jgvn7Q0khOcXt6AM1Krj-4" value="" style="endArrow=open;endFill=1;endSize=12;html=1;rounded=0;exitX=-0.02;exitY=0.096;exitDx=0;exitDy=0;entryX=0.856;entryY=-0.023;entryDx=0;entryDy=0;entryPerimeter=0;exitPerimeter=0;" parent="WIyWlLk6GJQsqaUBKTNV-1" source="Jgvn7Q0khOcXt6AM1Krj-0" target="zkfFHV4jXpPFQw0GAbJ--17" edge="1">
          <mxGeometry width="160" relative="1" as="geometry">
            <mxPoint x="-100" y="210" as="sourcePoint" />
            <mxPoint x="60" y="210" as="targetPoint" />
            <Array as="points" />
          </mxGeometry>
        </mxCell>
        <mxCell id="Jgvn7Q0khOcXt6AM1Krj-8" value="" style="endArrow=open;endFill=1;endSize=12;html=1;rounded=0;exitX=1.014;exitY=0.853;exitDx=0;exitDy=0;exitPerimeter=0;entryX=-0.001;entryY=0.047;entryDx=0;entryDy=0;entryPerimeter=0;" parent="WIyWlLk6GJQsqaUBKTNV-1" target="3yT8356qW33JT61PNnHo-3" edge="1">
          <mxGeometry width="160" relative="1" as="geometry">
            <mxPoint x="873.9200000000001" y="982.1779999999999" as="sourcePoint" />
            <mxPoint x="810" y="530" as="targetPoint" />
            <Array as="points" />
          </mxGeometry>
        </mxCell>
        <mxCell id="Jgvn7Q0khOcXt6AM1Krj-9" value="" style="endArrow=open;endFill=1;endSize=12;html=1;rounded=0;exitX=1.002;exitY=0.742;exitDx=0;exitDy=0;exitPerimeter=0;entryX=0.004;entryY=0.022;entryDx=0;entryDy=0;entryPerimeter=0;" parent="WIyWlLk6GJQsqaUBKTNV-1" source="3yT8356qW33JT61PNnHo-4" target="zkfFHV4jXpPFQw0GAbJ--13" edge="1">
          <mxGeometry width="160" relative="1" as="geometry">
            <mxPoint x="860" y="260" as="sourcePoint" />
            <mxPoint x="1170" y="423" as="targetPoint" />
          </mxGeometry>
        </mxCell>
        <mxCell id="Jgvn7Q0khOcXt6AM1Krj-10" value="" style="endArrow=open;shadow=0;strokeWidth=1;rounded=0;curved=0;endFill=1;edgeStyle=elbowEdgeStyle;elbow=vertical;entryX=0.036;entryY=-0.019;entryDx=0;entryDy=0;entryPerimeter=0;exitX=0.699;exitY=0.012;exitDx=0;exitDy=0;exitPerimeter=0;" parent="WIyWlLk6GJQsqaUBKTNV-1" source="OUiPq4jIBrS2TNY35F44-1" target="QegDPVJf7pusOnz6bvU5-81" edge="1">
          <mxGeometry x="0.5" y="41" relative="1" as="geometry">
            <mxPoint x="1690.5" y="448.2260000000001" as="sourcePoint" />
            <mxPoint x="1555" y="356" as="targetPoint" />
            <mxPoint x="-40" y="32" as="offset" />
            <Array as="points">
              <mxPoint x="1830" y="480" />
            </Array>
          </mxGeometry>
        </mxCell>
        <mxCell id="Jgvn7Q0khOcXt6AM1Krj-11" value="1" style="resizable=0;align=left;verticalAlign=bottom;labelBackgroundColor=none;fontSize=12;" parent="Jgvn7Q0khOcXt6AM1Krj-10" connectable="0" vertex="1">
          <mxGeometry x="-1" relative="1" as="geometry">
            <mxPoint y="4" as="offset" />
          </mxGeometry>
        </mxCell>
        <mxCell id="Jgvn7Q0khOcXt6AM1Krj-12" value="0....*" style="resizable=0;align=right;verticalAlign=bottom;labelBackgroundColor=none;fontSize=12;" parent="Jgvn7Q0khOcXt6AM1Krj-10" connectable="0" vertex="1">
          <mxGeometry x="1" relative="1" as="geometry">
            <mxPoint x="-7" y="4" as="offset" />
          </mxGeometry>
        </mxCell>
        <mxCell id="Jgvn7Q0khOcXt6AM1Krj-16" value="" style="endArrow=open;shadow=0;strokeWidth=1;rounded=0;curved=0;endFill=1;edgeStyle=elbowEdgeStyle;elbow=vertical;exitX=1.005;exitY=0.117;exitDx=0;exitDy=0;entryX=-0.017;entryY=0.12;entryDx=0;entryDy=0;entryPerimeter=0;exitPerimeter=0;" parent="WIyWlLk6GJQsqaUBKTNV-1" source="OUiPq4jIBrS2TNY35F44-1" target="QegDPVJf7pusOnz6bvU5-85" edge="1">
          <mxGeometry x="0.5" y="41" relative="1" as="geometry">
            <mxPoint x="1688.5" y="476.02" as="sourcePoint" />
            <mxPoint x="1576" y="482" as="targetPoint" />
            <mxPoint x="-40" y="32" as="offset" />
            <Array as="points">
              <mxPoint x="1850" y="640" />
            </Array>
          </mxGeometry>
        </mxCell>
        <mxCell id="Jgvn7Q0khOcXt6AM1Krj-17" value="1" style="resizable=0;align=left;verticalAlign=bottom;labelBackgroundColor=none;fontSize=12;" parent="Jgvn7Q0khOcXt6AM1Krj-16" connectable="0" vertex="1">
          <mxGeometry x="-1" relative="1" as="geometry">
            <mxPoint y="4" as="offset" />
          </mxGeometry>
        </mxCell>
        <mxCell id="Jgvn7Q0khOcXt6AM1Krj-18" value="0....*" style="resizable=0;align=right;verticalAlign=bottom;labelBackgroundColor=none;fontSize=12;" parent="Jgvn7Q0khOcXt6AM1Krj-16" connectable="0" vertex="1">
          <mxGeometry x="1" relative="1" as="geometry">
            <mxPoint x="-7" y="4" as="offset" />
          </mxGeometry>
        </mxCell>
        <mxCell id="Jgvn7Q0khOcXt6AM1Krj-19" value="&amp;lt;&amp;lt;uses&amp;gt;&amp;gt;" style="html=1;verticalAlign=bottom;endArrow=open;dashed=1;endSize=8;curved=0;rounded=0;entryX=0.39;entryY=0.002;entryDx=0;entryDy=0;entryPerimeter=0;" parent="WIyWlLk6GJQsqaUBKTNV-1" source="3yT8356qW33JT61PNnHo-3" target="3yT8356qW33JT61PNnHo-1" edge="1">
          <mxGeometry relative="1" as="geometry">
            <mxPoint x="720" y="780" as="sourcePoint" />
            <mxPoint x="935" y="853" as="targetPoint" />
          </mxGeometry>
        </mxCell>
        <mxCell id="Jgvn7Q0khOcXt6AM1Krj-23" value="&amp;lt;&amp;lt;uses&amp;gt;&amp;gt;" style="html=1;verticalAlign=bottom;endArrow=open;dashed=1;endSize=8;curved=0;rounded=0;entryX=1.008;entryY=0.075;entryDx=0;entryDy=0;entryPerimeter=0;exitX=0.006;exitY=0.035;exitDx=0;exitDy=0;exitPerimeter=0;" parent="WIyWlLk6GJQsqaUBKTNV-1" source="zkfFHV4jXpPFQw0GAbJ--17" target="3yT8356qW33JT61PNnHo-311" edge="1">
          <mxGeometry relative="1" as="geometry">
            <mxPoint x="200" y="440" as="sourcePoint" />
            <mxPoint x="-310" y="329" as="targetPoint" />
          </mxGeometry>
        </mxCell>
        <mxCell id="Jgvn7Q0khOcXt6AM1Krj-39" value="" style="endArrow=open;endFill=1;endSize=12;html=1;rounded=0;entryX=-0.025;entryY=0.132;entryDx=0;entryDy=0;entryPerimeter=0;exitX=0.009;exitY=0.708;exitDx=0;exitDy=0;exitPerimeter=0;" parent="WIyWlLk6GJQsqaUBKTNV-1" source="zkfFHV4jXpPFQw0GAbJ--7" target="QegDPVJf7pusOnz6bvU5-45" edge="1">
          <mxGeometry width="160" relative="1" as="geometry">
            <mxPoint x="320" y="980" as="sourcePoint" />
            <mxPoint x="280" y="1280" as="targetPoint" />
            <Array as="points">
              <mxPoint x="550" y="940" />
              <mxPoint x="550" y="1110" />
              <mxPoint x="550" y="1285" />
            </Array>
          </mxGeometry>
        </mxCell>
        <mxCell id="YVuoH4td5erzohnSMb-A-36" value="" style="endArrow=open;shadow=0;strokeWidth=1;rounded=0;curved=0;endFill=1;edgeStyle=elbowEdgeStyle;elbow=vertical;entryX=-0.015;entryY=0.065;entryDx=0;entryDy=0;exitX=-0.014;exitY=0.015;exitDx=0;exitDy=0;exitPerimeter=0;entryPerimeter=0;" parent="WIyWlLk6GJQsqaUBKTNV-1" target="YVuoH4td5erzohnSMb-A-25" edge="1">
          <mxGeometry x="0.5" y="41" relative="1" as="geometry">
            <mxPoint x="225.0999999999999" y="354.3899999999999" as="sourcePoint" />
            <mxPoint x="170" y="440" as="targetPoint" />
            <mxPoint x="-40" y="32" as="offset" />
            <Array as="points">
              <mxPoint x="270" y="92" />
            </Array>
          </mxGeometry>
        </mxCell>
        <mxCell id="YVuoH4td5erzohnSMb-A-37" value="1" style="resizable=0;align=left;verticalAlign=bottom;labelBackgroundColor=none;fontSize=12;" parent="YVuoH4td5erzohnSMb-A-36" connectable="0" vertex="1">
          <mxGeometry x="-1" relative="1" as="geometry">
            <mxPoint y="4" as="offset" />
          </mxGeometry>
        </mxCell>
        <mxCell id="YVuoH4td5erzohnSMb-A-38" value="1" style="resizable=0;align=right;verticalAlign=bottom;labelBackgroundColor=none;fontSize=12;" parent="YVuoH4td5erzohnSMb-A-36" connectable="0" vertex="1">
          <mxGeometry x="1" relative="1" as="geometry">
            <mxPoint x="-7" y="4" as="offset" />
          </mxGeometry>
        </mxCell>
        <mxCell id="HAcjH7s37PdUv2kKTBzC-7" value="" style="endArrow=open;shadow=0;strokeWidth=1;rounded=0;curved=0;endFill=1;edgeStyle=elbowEdgeStyle;elbow=vertical;exitX=1;exitY=0.059;exitDx=0;exitDy=0;exitPerimeter=0;entryX=0;entryY=0.5;entryDx=0;entryDy=0;" parent="WIyWlLk6GJQsqaUBKTNV-1" edge="1">
          <mxGeometry x="0.5" y="41" relative="1" as="geometry">
            <mxPoint x="414" y="-199.9980000000001" as="sourcePoint" />
            <mxPoint x="1470" y="-125" as="targetPoint" />
            <mxPoint x="-40" y="32" as="offset" />
            <Array as="points">
              <mxPoint x="1424" y="44.19" />
              <mxPoint x="1084" y="44.19" />
            </Array>
          </mxGeometry>
        </mxCell>
        <mxCell id="HAcjH7s37PdUv2kKTBzC-8" value="1" style="resizable=0;align=left;verticalAlign=bottom;labelBackgroundColor=none;fontSize=12;" parent="HAcjH7s37PdUv2kKTBzC-7" connectable="0" vertex="1">
          <mxGeometry x="-1" relative="1" as="geometry">
            <mxPoint y="4" as="offset" />
          </mxGeometry>
        </mxCell>
        <mxCell id="HAcjH7s37PdUv2kKTBzC-9" value="0....*" style="resizable=0;align=right;verticalAlign=bottom;labelBackgroundColor=none;fontSize=12;" parent="HAcjH7s37PdUv2kKTBzC-7" connectable="0" vertex="1">
          <mxGeometry x="1" relative="1" as="geometry">
            <mxPoint x="-7" y="4" as="offset" />
          </mxGeometry>
        </mxCell>
        <mxCell id="OUiPq4jIBrS2TNY35F44-1" value="UserProfileSocialNetworkInfo" style="swimlane;fontStyle=0;align=center;verticalAlign=top;childLayout=stackLayout;horizontal=1;startSize=26;horizontalStack=0;resizeParent=1;resizeLast=0;collapsible=1;marginBottom=0;rounded=0;shadow=0;strokeWidth=1;" parent="WIyWlLk6GJQsqaUBKTNV-1" vertex="1">
          <mxGeometry x="1580" y="670" width="250" height="139" as="geometry">
            <mxRectangle x="340" y="380" width="170" height="26" as="alternateBounds" />
          </mxGeometry>
        </mxCell>
        <mxCell id="OUiPq4jIBrS2TNY35F44-14" value="-user: User&lt;span style=&quot;color: rgba(0, 0, 0, 0); font-family: monospace; font-size: 0px; text-wrap: nowrap;&quot;&gt;%3CmxGraphModel%3E%3Croot%3E%3CmxCell%20id%3D%220%22%2F%3E%3CmxCell%20id%3D%221%22%20parent%3D%220%22%2F%3E%3CmxCell%20id%3D%222%22%20value%3D%22%2BgetBlockedAccounts()%26lt%3Bspan%20style%3D%26quot%3Bcolor%3A%20rgba(0%2C%200%2C%200%2C%200)%3B%20font-family%3A%20monospace%3B%20font-size%3A%200px%3B%20text-wrap%3A%20nowrap%3B%26quot%3B%26gt%3B%253CmxGraphModel%253E%253Croot%253E%253CmxCell%2520id%253D%25220%2522%252F%253E%253CmxCell%2520id%253D%25221%2522%2520parent%253D%25220%2522%252F%253E%253CmxCell%2520id%253D%25222%2522%2520value%253D%2522%252BquickSortAscending()%2522%2520style%253D%2522text%253BstrokeColor%253Dnone%253BfillColor%253Dnone%253Balign%253Dleft%253BverticalAlign%253Dtop%253BspacingLeft%253D4%253BspacingRight%253D4%253Boverflow%253Dhidden%253Brotatable%253D0%253Bpoints%253D%255B%255B0%252C0.5%255D%252C%255B1%252C0.5%255D%255D%253BportConstraint%253Deastwest%253BwhiteSpace%253Dwrap%253Bhtml%253D1%253B%2522%2520vertex%253D%25221%2522%2520parent%253D%25221%2522%253E%253CmxGeometry%2520x%253D%2522990%2522%2520y%253D%2522751%2522%2520width%253D%2522200%2522%2520height%253D%252226%2522%2520as%253D%2522geometry%2522%252F%253E%253C%252FmxCell%253E%253CmxCell%2520id%253D%25223%2522%2520value%253D%2522%252BquickSortDescending%2522%2520style%253D%2522text%253BstrokeColor%253Dnone%253BfillColor%253Dnone%253Balign%253Dleft%253BverticalAlign%253Dtop%253BspacingLeft%253D4%253BspacingRight%253D4%253Boverflow%253Dhidden%253Brotatable%253D0%253Bpoints%253D%255B%255B0%252C0.5%255D%252C%255B1%252C0.5%255D%255D%253BportConstraint%253Deastwest%253BwhiteSpace%253Dwrap%253Bhtml%253D1%253B%2522%2520vertex%253D%25221%2522%2520parent%253D%25221%2522%253E%253CmxGeometry%2520x%253D%2522990%2522%2520y%253D%2522777%2522%2520width%253D%2522200%2522%2520height%253D%252226%2522%2520as%253D%2522geometry%2522%252F%253E%253C%252FmxCell%253E%253CmxCell%2520id%253D%25224%2522%2520value%253D%2522%252BmergeSortAscending%2522%2520style%253D%2522text%253BstrokeColor%253Dnone%253BfillColor%253Dnone%253Balign%253Dleft%253BverticalAlign%253Dtop%253BspacingLeft%253D4%253BspacingRight%253D4%253Boverflow%253Dhidden%253Brotatable%253D0%253Bpoints%253D%255B%255B0%252C0.5%255D%252C%255B1%252C0.5%255D%255D%253BportConstraint%253Deastwest%253BwhiteSpace%253Dwrap%253Bhtml%253D1%253B%2522%2520vertex%253D%25221%2522%2520parent%253D%25221%2522%253E%253CmxGeometry%2520x%253D%2522990%2522%2520y%253D%2522803%2522%2520width%253D%2522200%2522%2520height%253D%252226%2522%2520as%253D%2522geometry%2522%252F%253E%253C%252FmxCell%253E%253CmxCell%2520id%253D%25225%2522%2520value%253D%2522%252BmergeSortDescending%2522%2520style%253D%2522text%253BstrokeColor%253Dnone%253BfillColor%253Dnone%253Balign%253Dleft%253BverticalAlign%253Dtop%253BspacingLeft%253D4%253BspacingRight%253D4%253Boverflow%253Dhidden%253Brotatable%253D0%253Bpoints%253D%255B%255B0%252C0.5%255D%252C%255B1%252C0.5%255D%255D%253BportConstraint%253Deastwest%253BwhiteSpace%253Dwrap%253Bhtml%253D1%253B%2522%2520vertex%253D%25221%2522%2520parent%253D%25221%2522%253E%253CmxGeometry%2520x%253D%2522990%2522%2520y%253D%2522829%2522%2520width%253D%2522200%2522%2520height%253D%252226%2522%2520as%253D%2522geometry%2522%252F%253E%253C%252FmxCell%253E%253C%252Froot%253E%253C%252FmxGraphModel%253E%26lt%3B%2Fspan%26gt%3B%22%20style%3D%22text%3BstrokeColor%3Dnone%3BfillColor%3Dnone%3Balign%3Dleft%3BverticalAlign%3Dtop%3BspacingLeft%3D4%3BspacingRight%3D4%3Boverflow%3Dhidden%3Brotatable%3D0%3Bpoints%3D%5B%5B0%2C0.5%5D%2C%5B1%2C0.5%5D%5D%3BportConstraint%3Deastwest%3BwhiteSpace%3Dwrap%3Bhtml%3D1%3B%22%20vertex%3D%221%22%20parent%3D%221%22%3E%3CmxGeometry%20x%3D%221610%22%20y%3D%22485%22%20width%3D%22250%22%20height%3D%2226%22%20as%3D%22geometry%22%2F%3E%3C%2FmxCell%3E%3C%2Froot%3E%3C%2FmxGraphModel%3E&lt;/span&gt;" style="text;strokeColor=none;fillColor=none;align=left;verticalAlign=top;spacingLeft=4;spacingRight=4;overflow=hidden;rotatable=0;points=[[0,0.5],[1,0.5]];portConstraint=eastwest;whiteSpace=wrap;html=1;" parent="OUiPq4jIBrS2TNY35F44-1" vertex="1">
          <mxGeometry y="26" width="250" height="26" as="geometry" />
        </mxCell>
        <mxCell id="OUiPq4jIBrS2TNY35F44-16" value="-restrictedStoriesAudience: List&amp;lt;User&amp;gt;" style="text;strokeColor=none;fillColor=none;align=left;verticalAlign=top;spacingLeft=4;spacingRight=4;overflow=hidden;rotatable=0;points=[[0,0.5],[1,0.5]];portConstraint=eastwest;whiteSpace=wrap;html=1;" parent="OUiPq4jIBrS2TNY35F44-1" vertex="1">
          <mxGeometry y="52" width="250" height="26" as="geometry" />
        </mxCell>
        <mxCell id="OUiPq4jIBrS2TNY35F44-15" value="restrictedPostsAudience: List&amp;lt;User&amp;gt;" style="text;strokeColor=none;fillColor=none;align=left;verticalAlign=top;spacingLeft=4;spacingRight=4;overflow=hidden;rotatable=0;points=[[0,0.5],[1,0.5]];portConstraint=eastwest;whiteSpace=wrap;html=1;" parent="OUiPq4jIBrS2TNY35F44-1" vertex="1">
          <mxGeometry y="78" width="250" height="26" as="geometry" />
        </mxCell>
        <mxCell id="OUiPq4jIBrS2TNY35F44-17" value="-isProfilePrivate: bool" style="text;strokeColor=none;fillColor=none;align=left;verticalAlign=top;spacingLeft=4;spacingRight=4;overflow=hidden;rotatable=0;points=[[0,0.5],[1,0.5]];portConstraint=eastwest;whiteSpace=wrap;html=1;" parent="OUiPq4jIBrS2TNY35F44-1" vertex="1">
          <mxGeometry y="104" width="250" height="26" as="geometry" />
        </mxCell>
        <mxCell id="OUiPq4jIBrS2TNY35F44-2" value="" style="line;html=1;strokeWidth=1;align=left;verticalAlign=middle;spacingTop=-1;spacingLeft=3;spacingRight=3;rotatable=0;labelPosition=right;points=[];portConstraint=eastwest;" parent="OUiPq4jIBrS2TNY35F44-1" vertex="1">
          <mxGeometry y="130" width="250" height="8" as="geometry" />
        </mxCell>
        <mxCell id="OUiPq4jIBrS2TNY35F44-20" value="" style="endArrow=open;shadow=0;strokeWidth=1;rounded=0;curved=0;endFill=1;edgeStyle=elbowEdgeStyle;elbow=vertical;entryX=0.324;entryY=-0.009;entryDx=0;entryDy=0;entryPerimeter=0;exitX=1.008;exitY=0.029;exitDx=0;exitDy=0;exitPerimeter=0;" parent="WIyWlLk6GJQsqaUBKTNV-1" source="zkfFHV4jXpPFQw0GAbJ--13" target="OUiPq4jIBrS2TNY35F44-1" edge="1">
          <mxGeometry x="0.5" y="41" relative="1" as="geometry">
            <mxPoint x="1600" y="339" as="sourcePoint" />
            <mxPoint x="1745" y="154" as="targetPoint" />
            <mxPoint x="-40" y="32" as="offset" />
            <Array as="points">
              <mxPoint x="1650" y="350" />
            </Array>
          </mxGeometry>
        </mxCell>
        <mxCell id="OUiPq4jIBrS2TNY35F44-21" value="1" style="resizable=0;align=left;verticalAlign=bottom;labelBackgroundColor=none;fontSize=12;" parent="OUiPq4jIBrS2TNY35F44-20" connectable="0" vertex="1">
          <mxGeometry x="-1" relative="1" as="geometry">
            <mxPoint y="4" as="offset" />
          </mxGeometry>
        </mxCell>
        <mxCell id="OUiPq4jIBrS2TNY35F44-22" value="0....*" style="resizable=0;align=right;verticalAlign=bottom;labelBackgroundColor=none;fontSize=12;" parent="OUiPq4jIBrS2TNY35F44-20" connectable="0" vertex="1">
          <mxGeometry x="1" relative="1" as="geometry">
            <mxPoint x="-7" y="4" as="offset" />
          </mxGeometry>
        </mxCell>
        <mxCell id="8rNenK3fV0YZjPAfXkvw-7" value="Highlight" style="swimlane;fontStyle=1;align=center;verticalAlign=top;childLayout=stackLayout;horizontal=1;startSize=26;horizontalStack=0;resizeParent=1;resizeParentMax=0;resizeLast=0;collapsible=1;marginBottom=0;whiteSpace=wrap;html=1;" vertex="1" parent="WIyWlLk6GJQsqaUBKTNV-1">
          <mxGeometry x="-490" y="1500" width="260" height="326" as="geometry" />
        </mxCell>
        <mxCell id="8rNenK3fV0YZjPAfXkvw-12" value="-highlightId: guid&lt;div&gt;-userId: guid&lt;/div&gt;&lt;div&gt;-postsId: List&amp;lt;Guid&amp;gt;&lt;/div&gt;&lt;div&gt;-name: string&lt;/div&gt;&lt;div&gt;-coverFilePath: string&lt;/div&gt;" style="text;strokeColor=none;fillColor=none;align=left;verticalAlign=top;spacingLeft=4;spacingRight=4;overflow=hidden;rotatable=0;points=[[0,0.5],[1,0.5]];portConstraint=eastwest;whiteSpace=wrap;html=1;" vertex="1" parent="8rNenK3fV0YZjPAfXkvw-7">
          <mxGeometry y="26" width="260" height="90" as="geometry" />
        </mxCell>
        <mxCell id="8rNenK3fV0YZjPAfXkvw-9" value="" style="line;strokeWidth=1;fillColor=none;align=left;verticalAlign=middle;spacingTop=-1;spacingLeft=3;spacingRight=3;rotatable=0;labelPosition=right;points=[];portConstraint=eastwest;strokeColor=inherit;" vertex="1" parent="8rNenK3fV0YZjPAfXkvw-7">
          <mxGeometry y="116" width="260" height="8" as="geometry" />
        </mxCell>
        <mxCell id="8rNenK3fV0YZjPAfXkvw-11" value="+Highlight(newName: string, newCover: string)&lt;div&gt;+getHighlightId():Guid&lt;/div&gt;&lt;div&gt;+getPosts() :List&amp;lt;Guid&amp;gt;&lt;/div&gt;&lt;div&gt;+getName():string&lt;/div&gt;&lt;div&gt;+getCover():string&lt;/div&gt;&lt;div&gt;+getUserId(): Guid&lt;/div&gt;&lt;div&gt;+addPostToHighlight(postId: Guid): bool&lt;/div&gt;&lt;div&gt;+removePostFromHighlight(postId: Guid): bool&lt;/div&gt;&lt;div&gt;+setName(newName: string)&lt;/div&gt;&lt;div&gt;+setCover(coverFilePath)&lt;/div&gt;&lt;div&gt;+setListPosts(postsIds: List&amp;lt;Guid&amp;gt;&lt;/div&gt;&lt;div&gt;+setGuid(guid: Guid)&lt;/div&gt;&lt;div&gt;+setListPosts(list: List&amp;lt;string&amp;gt;)&lt;/div&gt;&lt;div&gt;+setUserId(userId: Guid)&lt;/div&gt;" style="text;strokeColor=none;fillColor=none;align=left;verticalAlign=top;spacingLeft=4;spacingRight=4;overflow=hidden;rotatable=0;points=[[0,0.5],[1,0.5]];portConstraint=eastwest;whiteSpace=wrap;html=1;" vertex="1" parent="8rNenK3fV0YZjPAfXkvw-7">
          <mxGeometry y="124" width="260" height="202" as="geometry" />
        </mxCell>
        <mxCell id="XqwIXgYBdCiV65NhYHDk-8" value="CustomWindow" style="swimlane;fontStyle=1;align=center;verticalAlign=top;childLayout=stackLayout;horizontal=1;startSize=26;horizontalStack=0;resizeParent=1;resizeParentMax=0;resizeLast=0;collapsible=1;marginBottom=0;whiteSpace=wrap;html=1;" vertex="1" parent="WIyWlLk6GJQsqaUBKTNV-1">
          <mxGeometry x="750" y="-280" width="370" height="290" as="geometry" />
        </mxCell>
        <mxCell id="XqwIXgYBdCiV65NhYHDk-9" value="-allowedNames:List&amp;lt;string&amp;gt;" style="text;strokeColor=none;fillColor=none;align=left;verticalAlign=top;spacingLeft=4;spacingRight=4;overflow=hidden;rotatable=0;points=[[0,0.5],[1,0.5]];portConstraint=eastwest;whiteSpace=wrap;html=1;" vertex="1" parent="XqwIXgYBdCiV65NhYHDk-8">
          <mxGeometry y="26" width="370" height="26" as="geometry" />
        </mxCell>
        <mxCell id="XqwIXgYBdCiV65NhYHDk-10" value="-allowedProfiles:Dictionary&amp;lt;Post, List&amp;lt;UserInfo&amp;gt;&amp;gt;" style="text;strokeColor=none;fillColor=none;align=left;verticalAlign=top;spacingLeft=4;spacingRight=4;overflow=hidden;rotatable=0;points=[[0,0.5],[1,0.5]];portConstraint=eastwest;whiteSpace=wrap;html=1;" vertex="1" parent="XqwIXgYBdCiV65NhYHDk-8">
          <mxGeometry y="52" width="370" height="26" as="geometry" />
        </mxCell>
        <mxCell id="XqwIXgYBdCiV65NhYHDk-11" value="-friends:Dictionary&amp;lt;string, UserInfo&amp;gt;" style="text;strokeColor=none;fillColor=none;align=left;verticalAlign=top;spacingLeft=4;spacingRight=4;overflow=hidden;rotatable=0;points=[[0,0.5],[1,0.5]];portConstraint=eastwest;whiteSpace=wrap;html=1;" vertex="1" parent="XqwIXgYBdCiV65NhYHDk-8">
          <mxGeometry y="78" width="370" height="26" as="geometry" />
        </mxCell>
        <mxCell id="XqwIXgYBdCiV65NhYHDk-12" value="" style="line;strokeWidth=1;fillColor=none;align=left;verticalAlign=middle;spacingTop=-1;spacingLeft=3;spacingRight=3;rotatable=0;labelPosition=right;points=[];portConstraint=eastwest;strokeColor=inherit;" vertex="1" parent="XqwIXgYBdCiV65NhYHDk-8">
          <mxGeometry y="104" width="370" height="8" as="geometry" />
        </mxCell>
        <mxCell id="XqwIXgYBdCiV65NhYHDk-13" value="-makePostDictionary():Dictionary&amp;lt;Post, List&amp;lt;UserInfo&amp;gt;&amp;gt;" style="text;strokeColor=none;fillColor=none;align=left;verticalAlign=top;spacingLeft=4;spacingRight=4;overflow=hidden;rotatable=0;points=[[0,0.5],[1,0.5]];portConstraint=eastwest;whiteSpace=wrap;html=1;" vertex="1" parent="XqwIXgYBdCiV65NhYHDk-8">
          <mxGeometry y="112" width="370" height="26" as="geometry" />
        </mxCell>
        <mxCell id="XqwIXgYBdCiV65NhYHDk-14" value="-getPosts():List&amp;lt;Post&amp;gt;&amp;nbsp;" style="text;strokeColor=none;fillColor=none;align=left;verticalAlign=top;spacingLeft=4;spacingRight=4;overflow=hidden;rotatable=0;points=[[0,0.5],[1,0.5]];portConstraint=eastwest;whiteSpace=wrap;html=1;" vertex="1" parent="XqwIXgYBdCiV65NhYHDk-8">
          <mxGeometry y="138" width="370" height="26" as="geometry" />
        </mxCell>
        <mxCell id="XqwIXgYBdCiV65NhYHDk-15" value="-getFriends():Dictionary&amp;lt;string, UserInfo&amp;gt;" style="text;strokeColor=none;fillColor=none;align=left;verticalAlign=top;spacingLeft=4;spacingRight=4;overflow=hidden;rotatable=0;points=[[0,0.5],[1,0.5]];portConstraint=eastwest;whiteSpace=wrap;html=1;" vertex="1" parent="XqwIXgYBdCiV65NhYHDk-8">
          <mxGeometry y="164" width="370" height="26" as="geometry" />
        </mxCell>
        <mxCell id="XqwIXgYBdCiV65NhYHDk-16" value="-getCurrentPost():Post" style="text;strokeColor=none;fillColor=none;align=left;verticalAlign=top;spacingLeft=4;spacingRight=4;overflow=hidden;rotatable=0;points=[[0,0.5],[1,0.5]];portConstraint=eastwest;whiteSpace=wrap;html=1;" vertex="1" parent="XqwIXgYBdCiV65NhYHDk-8">
          <mxGeometry y="190" width="370" height="26" as="geometry" />
        </mxCell>
        <mxCell id="XqwIXgYBdCiV65NhYHDk-17" value="-LoadUsernames():void" style="text;strokeColor=none;fillColor=none;align=left;verticalAlign=top;spacingLeft=4;spacingRight=4;overflow=hidden;rotatable=0;points=[[0,0.5],[1,0.5]];portConstraint=eastwest;whiteSpace=wrap;html=1;" vertex="1" parent="XqwIXgYBdCiV65NhYHDk-8">
          <mxGeometry y="216" width="370" height="34" as="geometry" />
        </mxCell>
        <mxCell id="XqwIXgYBdCiV65NhYHDk-18" value="-addAllowedUserToSeePost(UserInfo user, Post key):bool" style="text;strokeColor=none;fillColor=none;align=left;verticalAlign=top;spacingLeft=4;spacingRight=4;overflow=hidden;rotatable=0;points=[[0,0.5],[1,0.5]];portConstraint=eastwest;whiteSpace=wrap;html=1;" vertex="1" parent="XqwIXgYBdCiV65NhYHDk-8">
          <mxGeometry y="250" width="370" height="40" as="geometry" />
        </mxCell>
        <mxCell id="mbNu1JkJSxgDgJ7gaiAV-5" value="" style="endArrow=none;html=1;rounded=0;exitX=1;exitY=0.5;exitDx=0;exitDy=0;" edge="1" parent="WIyWlLk6GJQsqaUBKTNV-1" source="3yT8356qW33JT61PNnHo-34" target="mbNu1JkJSxgDgJ7gaiAV-6">
          <mxGeometry width="50" height="50" relative="1" as="geometry">
            <mxPoint x="1400" y="1220" as="sourcePoint" />
            <mxPoint x="1560" y="1210" as="targetPoint" />
          </mxGeometry>
        </mxCell>
        <mxCell id="mbNu1JkJSxgDgJ7gaiAV-6" value="GroupsRpeository" style="swimlane;fontStyle=0;align=center;verticalAlign=top;childLayout=stackLayout;horizontal=1;startSize=26;horizontalStack=0;resizeParent=1;resizeLast=0;collapsible=1;marginBottom=0;rounded=0;shadow=0;strokeWidth=1;" vertex="1" parent="WIyWlLk6GJQsqaUBKTNV-1">
          <mxGeometry x="1540" y="1200" width="250" height="290" as="geometry">
            <mxRectangle x="340" y="380" width="170" height="26" as="alternateBounds" />
          </mxGeometry>
        </mxCell>
        <mxCell id="mbNu1JkJSxgDgJ7gaiAV-7" value="-groupsRepo: List&amp;lt;Group&amp;gt;" style="text;strokeColor=none;fillColor=none;align=left;verticalAlign=top;spacingLeft=4;spacingRight=4;overflow=hidden;rotatable=0;points=[[0,0.5],[1,0.5]];portConstraint=eastwest;whiteSpace=wrap;html=1;" vertex="1" parent="mbNu1JkJSxgDgJ7gaiAV-6">
          <mxGeometry y="26" width="250" height="26" as="geometry" />
        </mxCell>
        <mxCell id="mbNu1JkJSxgDgJ7gaiAV-10" value="-filePath: string" style="text;strokeColor=none;fillColor=none;align=left;verticalAlign=top;spacingLeft=4;spacingRight=4;overflow=hidden;rotatable=0;points=[[0,0.5],[1,0.5]];portConstraint=eastwest;whiteSpace=wrap;html=1;" vertex="1" parent="mbNu1JkJSxgDgJ7gaiAV-6">
          <mxGeometry y="52" width="250" height="26" as="geometry" />
        </mxCell>
        <mxCell id="mbNu1JkJSxgDgJ7gaiAV-11" value="" style="line;html=1;strokeWidth=1;align=left;verticalAlign=middle;spacingTop=-1;spacingLeft=3;spacingRight=3;rotatable=0;labelPosition=right;points=[];portConstraint=eastwest;" vertex="1" parent="mbNu1JkJSxgDgJ7gaiAV-6">
          <mxGeometry y="78" width="250" height="8" as="geometry" />
        </mxCell>
        <mxCell id="mbNu1JkJSxgDgJ7gaiAV-13" value="+LoadGroupFromXML(): List&amp;lt;Group&amp;gt;" style="text;strokeColor=none;fillColor=none;align=left;verticalAlign=top;spacingLeft=4;spacingRight=4;overflow=hidden;rotatable=0;points=[[0,0.5],[1,0.5]];portConstraint=eastwest;whiteSpace=wrap;html=1;" vertex="1" parent="mbNu1JkJSxgDgJ7gaiAV-6">
          <mxGeometry y="86" width="250" height="26" as="geometry" />
        </mxCell>
        <mxCell id="mbNu1JkJSxgDgJ7gaiAV-14" value="+SaveGroupsInXML(): void" style="text;strokeColor=none;fillColor=none;align=left;verticalAlign=top;spacingLeft=4;spacingRight=4;overflow=hidden;rotatable=0;points=[[0,0.5],[1,0.5]];portConstraint=eastwest;whiteSpace=wrap;html=1;" vertex="1" parent="mbNu1JkJSxgDgJ7gaiAV-6">
          <mxGeometry y="112" width="250" height="26" as="geometry" />
        </mxCell>
        <mxCell id="mbNu1JkJSxgDgJ7gaiAV-15" value="+AddGroup(group: Group): bool" style="text;strokeColor=none;fillColor=none;align=left;verticalAlign=top;spacingLeft=4;spacingRight=4;overflow=hidden;rotatable=0;points=[[0,0.5],[1,0.5]];portConstraint=eastwest;whiteSpace=wrap;html=1;" vertex="1" parent="mbNu1JkJSxgDgJ7gaiAV-6">
          <mxGeometry y="138" width="250" height="26" as="geometry" />
        </mxCell>
        <mxCell id="mbNu1JkJSxgDgJ7gaiAV-16" value="+RemoveGroup(group: Group): bool" style="text;strokeColor=none;fillColor=none;align=left;verticalAlign=top;spacingLeft=4;spacingRight=4;overflow=hidden;rotatable=0;points=[[0,0.5],[1,0.5]];portConstraint=eastwest;whiteSpace=wrap;html=1;" vertex="1" parent="mbNu1JkJSxgDgJ7gaiAV-6">
          <mxGeometry y="164" width="250" height="26" as="geometry" />
        </mxCell>
        <mxCell id="mbNu1JkJSxgDgJ7gaiAV-18" value="+GetGroupByName(groupName: string)" style="text;strokeColor=none;fillColor=none;align=left;verticalAlign=top;spacingLeft=4;spacingRight=4;overflow=hidden;rotatable=0;points=[[0,0.5],[1,0.5]];portConstraint=eastwest;whiteSpace=wrap;html=1;" vertex="1" parent="mbNu1JkJSxgDgJ7gaiAV-6">
          <mxGeometry y="190" width="250" height="26" as="geometry" />
        </mxCell>
        <mxCell id="mbNu1JkJSxgDgJ7gaiAV-19" value="+AddMemberToGroup(groupName: string, member User): bool" style="text;strokeColor=none;fillColor=none;align=left;verticalAlign=top;spacingLeft=4;spacingRight=4;overflow=hidden;rotatable=0;points=[[0,0.5],[1,0.5]];portConstraint=eastwest;whiteSpace=wrap;html=1;" vertex="1" parent="mbNu1JkJSxgDgJ7gaiAV-6">
          <mxGeometry y="216" width="250" height="34" as="geometry" />
        </mxCell>
        <mxCell id="mbNu1JkJSxgDgJ7gaiAV-20" value="+RemoveMemberFromGroup(groupName: string, member User): bool" style="text;strokeColor=none;fillColor=none;align=left;verticalAlign=top;spacingLeft=4;spacingRight=4;overflow=hidden;rotatable=0;points=[[0,0.5],[1,0.5]];portConstraint=eastwest;whiteSpace=wrap;html=1;" vertex="1" parent="mbNu1JkJSxgDgJ7gaiAV-6">
          <mxGeometry y="250" width="250" height="34" as="geometry" />
        </mxCell>
        <mxCell id="8rNenK3fV0YZjPAfXkvw-15" value="" style="endArrow=open;endFill=1;endSize=12;html=1;rounded=0;exitX=1.018;exitY=0.29;exitDx=0;exitDy=0;exitPerimeter=0;" edge="1" parent="WIyWlLk6GJQsqaUBKTNV-1" source="8rNenK3fV0YZjPAfXkvw-12">
          <mxGeometry width="160" relative="1" as="geometry">
            <mxPoint x="110" y="1070" as="sourcePoint" />
            <mxPoint x="160" y="1220" as="targetPoint" />
          </mxGeometry>
        </mxCell>
        <mxCell id="XqwIXgYBdCiV65NhYHDk-22" value="UserInfo" style="swimlane;fontStyle=0;align=center;verticalAlign=top;childLayout=stackLayout;horizontal=1;startSize=26;horizontalStack=0;resizeParent=1;resizeLast=0;collapsible=1;marginBottom=0;rounded=0;shadow=0;strokeWidth=1;" vertex="1" parent="WIyWlLk6GJQsqaUBKTNV-1">
          <mxGeometry x="1470" y="-294" width="170" height="224" as="geometry">
            <mxRectangle x="230" y="140" width="160" height="26" as="alternateBounds" />
          </mxGeometry>
        </mxCell>
        <mxCell id="XqwIXgYBdCiV65NhYHDk-23" value="-id: guid" style="text;align=left;verticalAlign=top;spacingLeft=4;spacingRight=4;overflow=hidden;rotatable=0;points=[[0,0.5],[1,0.5]];portConstraint=eastwest;" vertex="1" parent="XqwIXgYBdCiV65NhYHDk-22">
          <mxGeometry y="26" width="170" height="26" as="geometry" />
        </mxCell>
        <mxCell id="XqwIXgYBdCiV65NhYHDk-24" value="-birthday: DateTime" style="text;strokeColor=none;fillColor=none;align=left;verticalAlign=top;spacingLeft=4;spacingRight=4;overflow=hidden;rotatable=0;points=[[0,0.5],[1,0.5]];portConstraint=eastwest;whiteSpace=wrap;html=1;" vertex="1" parent="XqwIXgYBdCiV65NhYHDk-22">
          <mxGeometry y="52" width="170" height="26" as="geometry" />
        </mxCell>
        <mxCell id="XqwIXgYBdCiV65NhYHDk-25" value="-phoneNumber: string" style="text;strokeColor=none;fillColor=none;align=left;verticalAlign=top;spacingLeft=4;spacingRight=4;overflow=hidden;rotatable=0;points=[[0,0.5],[1,0.5]];portConstraint=eastwest;whiteSpace=wrap;html=1;" vertex="1" parent="XqwIXgYBdCiV65NhYHDk-22">
          <mxGeometry y="78" width="170" height="26" as="geometry" />
        </mxCell>
        <mxCell id="XqwIXgYBdCiV65NhYHDk-26" value="-email: string" style="text;strokeColor=none;fillColor=none;align=left;verticalAlign=top;spacingLeft=4;spacingRight=4;overflow=hidden;rotatable=0;points=[[0,0.5],[1,0.5]];portConstraint=eastwest;whiteSpace=wrap;html=1;" vertex="1" parent="XqwIXgYBdCiV65NhYHDk-22">
          <mxGeometry y="104" width="170" height="26" as="geometry" />
        </mxCell>
        <mxCell id="XqwIXgYBdCiV65NhYHDk-27" value="-username: string" style="text;align=left;verticalAlign=top;spacingLeft=4;spacingRight=4;overflow=hidden;rotatable=0;points=[[0,0.5],[1,0.5]];portConstraint=eastwest;rounded=0;shadow=0;html=0;" vertex="1" parent="XqwIXgYBdCiV65NhYHDk-22">
          <mxGeometry y="130" width="170" height="26" as="geometry" />
        </mxCell>
        <mxCell id="XqwIXgYBdCiV65NhYHDk-33" value="" style="line;html=1;strokeWidth=1;align=left;verticalAlign=middle;spacingTop=-1;spacingLeft=3;spacingRight=3;rotatable=0;labelPosition=right;points=[];portConstraint=eastwest;" vertex="1" parent="XqwIXgYBdCiV65NhYHDk-22">
          <mxGeometry y="156" width="170" height="8" as="geometry" />
        </mxCell>
        <mxCell id="XqwIXgYBdCiV65NhYHDk-36" value="+UserInfo(string newUsername, string NewPhoneNumber)" style="text;align=left;verticalAlign=top;spacingLeft=4;spacingRight=4;overflow=hidden;rotatable=0;points=[[0,0.5],[1,0.5]];portConstraint=eastwest;rounded=0;shadow=0;html=0;" vertex="1" parent="XqwIXgYBdCiV65NhYHDk-22">
          <mxGeometry y="164" width="170" height="26" as="geometry" />
        </mxCell>
        <mxCell id="XqwIXgYBdCiV65NhYHDk-37" value="+UserInfo()" style="text;align=left;verticalAlign=top;spacingLeft=4;spacingRight=4;overflow=hidden;rotatable=0;points=[[0,0.5],[1,0.5]];portConstraint=eastwest;rounded=0;shadow=0;html=0;" vertex="1" parent="XqwIXgYBdCiV65NhYHDk-22">
          <mxGeometry y="190" width="170" height="26" as="geometry" />
        </mxCell>
        <mxCell id="8rNenK3fV0YZjPAfXkvw-16" value="HighlightsRepo" style="swimlane;fontStyle=1;align=center;verticalAlign=top;childLayout=stackLayout;horizontal=1;startSize=26;horizontalStack=0;resizeParent=1;resizeParentMax=0;resizeLast=0;collapsible=1;marginBottom=0;whiteSpace=wrap;html=1;" vertex="1" parent="WIyWlLk6GJQsqaUBKTNV-1">
          <mxGeometry x="-420" y="1110" width="350" height="370" as="geometry" />
        </mxCell>
        <mxCell id="8rNenK3fV0YZjPAfXkvw-17" value="-userHighlights: Dict&amp;lt;Guid, Dict&amp;lt;Guid, Highlight&amp;gt;&amp;gt;&lt;div&gt;-filePath: string&lt;/div&gt;" style="text;strokeColor=none;fillColor=none;align=left;verticalAlign=top;spacingLeft=4;spacingRight=4;overflow=hidden;rotatable=0;points=[[0,0.5],[1,0.5]];portConstraint=eastwest;whiteSpace=wrap;html=1;" vertex="1" parent="8rNenK3fV0YZjPAfXkvw-16">
          <mxGeometry y="26" width="350" height="54" as="geometry" />
        </mxCell>
        <mxCell id="8rNenK3fV0YZjPAfXkvw-18" value="" style="line;strokeWidth=1;fillColor=none;align=left;verticalAlign=middle;spacingTop=-1;spacingLeft=3;spacingRight=3;rotatable=0;labelPosition=right;points=[];portConstraint=eastwest;strokeColor=inherit;" vertex="1" parent="8rNenK3fV0YZjPAfXkvw-16">
          <mxGeometry y="80" width="350" height="8" as="geometry" />
        </mxCell>
        <mxCell id="8rNenK3fV0YZjPAfXkvw-19" value="+HighlightsRepo()&lt;div&gt;-generateDefaultFilePath(): string&lt;/div&gt;&lt;div&gt;-createXml(filePath:string)&lt;/div&gt;&lt;div&gt;-loadHighlights(filepath:string)&lt;/div&gt;&lt;div&gt;+SaveHighlightsToXml()&lt;/div&gt;&lt;div&gt;+GetConnectedUserPosts(userId: Guid):List&amp;lt;MockPhotoPost&amp;gt;&lt;/div&gt;&lt;div&gt;+AddHighlight(userId:Guid, highlight: Highlight):bool&lt;/div&gt;&lt;div&gt;+RemoveHighlight(userId: Guid, highlightId: Guid):bool&lt;/div&gt;&lt;div&gt;+AddPostToHighlight(userId: Guid, postId: Guid, highlightId:Guid):bool&lt;/div&gt;&lt;div&gt;+RemovePostFromHighlight(userId:Guid, postId:Guid, highlightId:Guid):bool&lt;/div&gt;&lt;div&gt;+GetHighlightsOfUser(userId:Guid):List&amp;lt;Highlight&amp;gt;&lt;/div&gt;&lt;div&gt;+getHighlight(userId:Guid, highlightId:Guid):List&amp;lt;MockPhotoPost&amp;gt;&lt;/div&gt;&lt;div&gt;+getPostsOfHighlight(userId:Guid, highlightId:Guid);List&amp;lt;MockPhotoPost&amp;gt;&lt;/div&gt;" style="text;strokeColor=none;fillColor=none;align=left;verticalAlign=top;spacingLeft=4;spacingRight=4;overflow=hidden;rotatable=0;points=[[0,0.5],[1,0.5]];portConstraint=eastwest;whiteSpace=wrap;html=1;" vertex="1" parent="8rNenK3fV0YZjPAfXkvw-16">
          <mxGeometry y="88" width="350" height="282" as="geometry" />
        </mxCell>
        <mxCell id="Cn2Hv3FoskT15pSYobs5-0" value="" style="endArrow=open;shadow=0;strokeWidth=1;rounded=0;curved=0;endFill=1;edgeStyle=elbowEdgeStyle;elbow=vertical;exitX=1.001;exitY=0.027;exitDx=0;exitDy=0;exitPerimeter=0;" edge="1" parent="WIyWlLk6GJQsqaUBKTNV-1" source="QegDPVJf7pusOnz6bvU5-7">
          <mxGeometry x="0.5" y="41" relative="1" as="geometry">
            <mxPoint x="-220" as="sourcePoint" />
            <mxPoint x="220" y="400" as="targetPoint" />
            <mxPoint x="-40" y="32" as="offset" />
            <Array as="points">
              <mxPoint x="-10" y="390" />
            </Array>
          </mxGeometry>
        </mxCell>
        <mxCell id="Cn2Hv3FoskT15pSYobs5-1" value="1" style="resizable=0;align=left;verticalAlign=bottom;labelBackgroundColor=none;fontSize=12;" connectable="0" vertex="1" parent="Cn2Hv3FoskT15pSYobs5-0">
          <mxGeometry x="-1" relative="1" as="geometry">
            <mxPoint y="4" as="offset" />
          </mxGeometry>
        </mxCell>
        <mxCell id="Cn2Hv3FoskT15pSYobs5-2" value="0....*" style="resizable=0;align=right;verticalAlign=bottom;labelBackgroundColor=none;fontSize=12;" connectable="0" vertex="1" parent="Cn2Hv3FoskT15pSYobs5-0">
          <mxGeometry x="1" relative="1" as="geometry">
            <mxPoint x="-7" y="4" as="offset" />
          </mxGeometry>
        </mxCell>
        <mxCell id="XqwIXgYBdCiV65NhYHDk-34" value="" style="endArrow=classic;html=1;rounded=0;entryX=0.005;entryY=0.048;entryDx=0;entryDy=0;entryPerimeter=0;" edge="1" parent="WIyWlLk6GJQsqaUBKTNV-1" target="XqwIXgYBdCiV65NhYHDk-8">
          <mxGeometry width="50" height="50" relative="1" as="geometry">
            <mxPoint x="230" y="330" as="sourcePoint" />
            <mxPoint x="860" y="50" as="targetPoint" />
          </mxGeometry>
        </mxCell>
        <mxCell id="XqwIXgYBdCiV65NhYHDk-35" value="" style="endArrow=classic;html=1;rounded=0;exitX=0.999;exitY=0.046;exitDx=0;exitDy=0;exitPerimeter=0;entryX=-0.004;entryY=0.045;entryDx=0;entryDy=0;entryPerimeter=0;" edge="1" parent="WIyWlLk6GJQsqaUBKTNV-1" source="XqwIXgYBdCiV65NhYHDk-8" target="XqwIXgYBdCiV65NhYHDk-22">
          <mxGeometry width="50" height="50" relative="1" as="geometry">
            <mxPoint x="1170" y="-70" as="sourcePoint" />
            <mxPoint x="1220" y="-120" as="targetPoint" />
          </mxGeometry>
        </mxCell>
        <mxCell id="XqwIXgYBdCiV65NhYHDk-38" value="Post" style="swimlane;fontStyle=0;align=center;verticalAlign=top;childLayout=stackLayout;horizontal=1;startSize=26;horizontalStack=0;resizeParent=1;resizeLast=0;collapsible=1;marginBottom=0;rounded=0;shadow=0;strokeWidth=1;" vertex="1" parent="WIyWlLk6GJQsqaUBKTNV-1">
          <mxGeometry x="1170" y="-440" width="170" height="90" as="geometry">
            <mxRectangle x="230" y="140" width="160" height="26" as="alternateBounds" />
          </mxGeometry>
        </mxCell>
        <mxCell id="XqwIXgYBdCiV65NhYHDk-39" value="-id: int" style="text;align=left;verticalAlign=top;spacingLeft=4;spacingRight=4;overflow=hidden;rotatable=0;points=[[0,0.5],[1,0.5]];portConstraint=eastwest;" vertex="1" parent="XqwIXgYBdCiV65NhYHDk-38">
          <mxGeometry y="26" width="170" height="26" as="geometry" />
        </mxCell>
        <mxCell id="XqwIXgYBdCiV65NhYHDk-44" value="" style="line;html=1;strokeWidth=1;align=left;verticalAlign=middle;spacingTop=-1;spacingLeft=3;spacingRight=3;rotatable=0;labelPosition=right;points=[];portConstraint=eastwest;" vertex="1" parent="XqwIXgYBdCiV65NhYHDk-38">
          <mxGeometry y="52" width="170" height="8" as="geometry" />
        </mxCell>
        <mxCell id="XqwIXgYBdCiV65NhYHDk-46" value="+Post(int id)" style="text;align=left;verticalAlign=top;spacingLeft=4;spacingRight=4;overflow=hidden;rotatable=0;points=[[0,0.5],[1,0.5]];portConstraint=eastwest;rounded=0;shadow=0;html=0;" vertex="1" parent="XqwIXgYBdCiV65NhYHDk-38">
          <mxGeometry y="60" width="170" height="26" as="geometry" />
        </mxCell>
        <mxCell id="XqwIXgYBdCiV65NhYHDk-47" value="" style="endArrow=classic;html=1;rounded=0;exitX=0.826;exitY=-0.014;exitDx=0;exitDy=0;exitPerimeter=0;entryX=0.001;entryY=0.169;entryDx=0;entryDy=0;entryPerimeter=0;" edge="1" parent="WIyWlLk6GJQsqaUBKTNV-1" source="XqwIXgYBdCiV65NhYHDk-8" target="XqwIXgYBdCiV65NhYHDk-38">
          <mxGeometry width="50" height="50" relative="1" as="geometry">
            <mxPoint x="1090" y="-300" as="sourcePoint" />
            <mxPoint x="1140" y="-350" as="targetPoint" />
          </mxGeometry>
        </mxCell>
      </root>
    </mxGraphModel>
  </diagram>
</mxfile>
